<svg width="165" height="36" viewBox="0 0 165 36" fill="none" xmlns="http://www.w3.org/2000/svg">
<path d="M138.283 17.8921L133.283 15.0053V20.7788L138.283 17.8921ZM103.767 18.3921H133.783V17.3921H103.767V18.3921Z" fill="black"/>
<path d="M27.6769 15.7241C27.6769 18.2301 33.4449 16.2561 33.4449 20.1481C33.4449 22.0241 31.9189 23.0741 29.8329 23.0741C27.7189 23.0741 26.2629 22.1081 25.8709 20.1201H27.5089C27.7749 21.1981 28.5729 21.7861 29.8469 21.7861C31.1489 21.7861 31.8349 21.2121 31.8349 20.3581C31.8349 17.6701 26.0669 19.6721 26.0669 15.8501C26.0669 14.4221 27.2709 13.1901 29.4409 13.1901C31.3169 13.1901 32.8569 14.0861 33.1929 16.1721H31.5269C31.2609 14.9961 30.5189 14.4781 29.3989 14.4781C28.3069 14.4781 27.6769 14.9681 27.6769 15.7241ZM34.6255 20.6661V16.5921H33.6175V15.4301H34.6255V13.7081H36.1235V15.4301H37.7335V16.5921H36.1235V20.5821C36.1235 21.4361 36.3615 21.8421 37.4115 21.8421H37.7055V22.9341C37.5375 23.0181 37.1875 23.0741 36.7675 23.0741C35.3115 23.0741 34.6255 22.2761 34.6255 20.6661ZM39.8531 17.8661H38.3551C38.5931 16.2141 39.7271 15.2341 41.5891 15.2341C43.6191 15.2341 44.6271 16.4241 44.6271 18.1601V21.0721C44.6271 21.9681 44.7111 22.4861 44.8791 22.8921H43.3111C43.1991 22.6121 43.1571 22.2201 43.1431 21.8001C42.5131 22.6821 41.5471 23.0741 40.6511 23.0741C39.1391 23.0741 38.1031 22.3601 38.1031 20.9321C38.1031 19.9101 38.6631 19.1541 39.7831 18.7761C40.7771 18.4401 41.7851 18.3561 43.1291 18.3421V18.1741C43.1291 17.0821 42.6251 16.4941 41.4771 16.4941C40.5111 16.4941 39.9931 17.0261 39.8531 17.8661ZM39.6151 20.8761C39.6151 21.5061 40.1331 21.8981 40.9311 21.8981C42.1771 21.8981 43.1291 20.9041 43.1291 19.7001V19.3641C40.2591 19.3921 39.6151 20.0221 39.6151 20.8761ZM46.0855 22.8921V15.4301H47.5835V16.5361C48.0735 15.6401 48.8435 15.2341 49.7115 15.2341C50.0055 15.2341 50.2855 15.3041 50.4255 15.4301V16.7461C50.2015 16.6761 49.9355 16.6481 49.6275 16.6481C48.1995 16.6481 47.5835 17.5161 47.5835 18.8181V22.8921H46.0855ZM51.2209 20.6661V16.5921H50.2129V15.4301H51.2209V13.7081H52.7189V15.4301H54.3289V16.5921H52.7189V20.5821C52.7189 21.4361 52.9569 21.8421 54.0069 21.8421H54.3009V22.9341C54.1329 23.0181 53.7829 23.0741 53.3629 23.0741C51.9069 23.0741 51.2209 22.2761 51.2209 20.6661ZM57.4747 22.8921V13.3721H59.1127L63.1027 19.5881L63.7047 20.7081L63.6627 13.3721H65.2307V22.8921H63.5927L59.6167 16.7041L59.0007 15.5421L59.0427 22.8921H57.4747ZM69.8674 23.0741C67.6974 23.0741 66.3814 21.6041 66.3814 19.1681C66.3814 16.6341 67.7394 15.2341 69.8674 15.2341C72.0374 15.2341 73.3534 16.7321 73.3534 19.1681C73.3534 21.6881 71.9954 23.0741 69.8674 23.0741ZM69.8674 21.8141C71.1414 21.8141 71.8274 20.8901 71.8274 19.1681C71.8274 17.4601 71.1274 16.4941 69.8674 16.4941C68.6074 16.4941 67.9074 17.4321 67.9074 19.1681C67.9074 20.8621 68.6074 21.8141 69.8674 21.8141ZM80.8064 22.8921L79.3224 17.5861L79.1684 16.7461L79.0004 17.5861L77.5164 22.8921H75.6684L73.5124 15.4301H75.1224L76.4944 20.9741L76.6764 21.8141L76.8724 20.9741L78.4404 15.4301H80.0224L81.6044 20.9741L81.7724 21.7721L81.9404 20.9741L83.3124 15.4301H84.8524L82.6824 22.8921H80.8064Z" fill="black"/>
<rect x="1.20215" y="0.649414" width="162.604" height="34.4854" stroke="black"/>
</svg>
