<svg width="232" height="46" viewBox="0 0 232 46" fill="none" xmlns="http://www.w3.org/2000/svg">
<path d="M1 35.931V0.971313H85.2593" stroke="white"/>
<path d="M230.797 10.4713V45.431H154.688" stroke="white"/>
<path d="M59.438 28.1561C58.5448 28.1561 57.7723 27.9488 57.1206 27.5341C56.4735 27.1148 55.9722 26.5223 55.6167 25.7567C55.2658 24.9911 55.0903 24.0819 55.0903 23.0292V23.0155C55.0903 21.9628 55.2658 21.0536 55.6167 20.288C55.9722 19.5178 56.4735 18.9253 57.1206 18.5106C57.7723 18.0913 58.5425 17.8817 59.4312 17.8817C60.1102 17.8817 60.73 18.0207 61.2905 18.2987C61.8556 18.5767 62.3205 18.9572 62.6851 19.4403C63.0496 19.9234 63.2775 20.4748 63.3687 21.0946L63.3618 21.1014L62.4253 21.1083V21.0946C62.325 20.6298 62.1336 20.2219 61.8511 19.871C61.5685 19.5201 61.2176 19.2443 60.7983 19.0438C60.3836 18.8433 59.9279 18.743 59.4312 18.743C58.743 18.743 58.1437 18.9185 57.6333 19.2694C57.1274 19.6203 56.7355 20.1148 56.4575 20.7528C56.1841 21.3908 56.0474 22.1451 56.0474 23.0155V23.0292C56.0474 23.8951 56.1841 24.647 56.4575 25.285C56.7355 25.9231 57.1274 26.4175 57.6333 26.7684C58.1437 27.1193 58.7453 27.2948 59.438 27.2948C59.9484 27.2948 60.411 27.2059 60.8257 27.0282C61.245 26.8505 61.5936 26.6021 61.8716 26.2831C62.1496 25.9595 62.3319 25.5813 62.4185 25.1483L62.4321 25.1346H63.3687V25.1483C63.2729 25.7499 63.0451 26.2762 62.6851 26.7274C62.3296 27.1786 61.8739 27.5295 61.3179 27.7802C60.7619 28.0308 60.1353 28.1561 59.438 28.1561ZM64.7706 27.951V20.5887H65.6729V21.7987H65.7549C65.9008 21.3794 66.1469 21.0536 66.4932 20.8212C66.8396 20.5842 67.2611 20.4657 67.7579 20.4657C67.8946 20.4657 68.0222 20.4725 68.1407 20.4862C68.2592 20.4999 68.3617 20.5158 68.4483 20.5341V21.4159C68.3207 21.384 68.1931 21.3612 68.0655 21.3475C67.9424 21.3293 67.808 21.3202 67.6622 21.3202C67.2794 21.3202 66.9376 21.4091 66.6368 21.5868C66.3406 21.76 66.1059 21.9992 65.9327 22.3046C65.7595 22.6099 65.6729 22.9608 65.6729 23.3573V27.951H64.7706ZM72.1676 28.0741C71.4794 28.0741 70.8847 27.9191 70.3834 27.6093C69.8867 27.2994 69.5039 26.8619 69.235 26.2968C68.9661 25.7316 68.8317 25.064 68.8317 24.2938V24.2802C68.8317 23.5145 68.9661 22.8469 69.235 22.2772C69.5039 21.703 69.8821 21.2587 70.3697 20.9442C70.8619 20.6252 71.4362 20.4657 72.0924 20.4657C72.7532 20.4657 73.3206 20.6206 73.7946 20.9305C74.2731 21.2359 74.6399 21.6643 74.8951 22.2157C75.1549 22.7626 75.2848 23.3983 75.2848 24.1229V24.5057H69.2965V23.7675H74.8268L74.3824 24.4305V24.0887C74.3824 23.4735 74.2845 22.9585 74.0885 22.5438C73.8971 22.1246 73.6282 21.8078 73.2819 21.5936C72.9401 21.3794 72.5436 21.2723 72.0924 21.2723C71.6367 21.2723 71.2334 21.3817 70.8824 21.6005C70.5315 21.8192 70.2535 22.1405 70.0485 22.5643C69.8479 22.9836 69.7477 23.4917 69.7477 24.0887V24.4305C69.7477 25.0184 69.8479 25.5243 70.0485 25.9481C70.249 26.3719 70.5315 26.6978 70.8961 26.9257C71.2607 27.1535 71.6914 27.2675 72.1881 27.2675C72.5436 27.2675 72.8603 27.2173 73.1383 27.1171C73.4209 27.0168 73.6556 26.8846 73.8424 26.7206C74.0293 26.552 74.1637 26.3742 74.2457 26.1874L74.2662 26.1327H75.1754L75.1549 26.1874C75.082 26.438 74.9612 26.6773 74.7926 26.9052C74.6285 27.1285 74.4189 27.329 74.1637 27.5067C73.9085 27.6799 73.6123 27.8189 73.275 27.9237C72.9423 28.024 72.5732 28.0741 72.1676 28.0741ZM78.6965 28.0741C78.2225 28.0741 77.801 27.9875 77.4318 27.8143C77.0627 27.6366 76.771 27.3859 76.5568 27.0624C76.3426 26.7388 76.2355 26.3583 76.2355 25.9208V25.9071C76.2355 25.4833 76.3381 25.1187 76.5431 24.8134C76.7482 24.5035 77.049 24.2619 77.4455 24.0887C77.842 23.911 78.3228 23.8039 78.8879 23.7675L81.6359 23.5897V24.3212L79.0109 24.4989C78.382 24.5399 77.9149 24.6789 77.6096 24.9159C77.3088 25.1483 77.1584 25.4742 77.1584 25.8934V25.9071C77.1584 26.3309 77.3179 26.6682 77.6369 26.9188C77.9559 27.1649 78.3661 27.288 78.8674 27.288C79.3094 27.288 79.7036 27.1968 80.05 27.0145C80.4009 26.8277 80.6789 26.577 80.884 26.2626C81.089 25.9481 81.1916 25.5972 81.1916 25.2098V22.9266C81.1916 22.3843 81.0321 21.9719 80.7131 21.6893C80.3941 21.4068 79.936 21.2655 79.339 21.2655C78.8377 21.2655 78.4207 21.3635 78.0881 21.5594C77.7554 21.7554 77.5389 22.038 77.4387 22.4071L77.4318 22.4208H76.5295L76.5363 22.3934C76.6001 21.9969 76.7596 21.6552 77.0148 21.368C77.27 21.0809 77.5982 20.8599 77.9992 20.705C78.4002 20.5455 78.856 20.4657 79.3664 20.4657C79.9452 20.4657 80.4373 20.5637 80.8429 20.7596C81.2485 20.951 81.5562 21.229 81.7658 21.5936C81.98 21.9582 82.0871 22.4003 82.0871 22.9198V27.951H81.1916V26.6796H81.1027C80.9569 26.9712 80.7655 27.2219 80.5285 27.4315C80.2915 27.6366 80.0181 27.7961 79.7082 27.91C79.3983 28.0194 79.061 28.0741 78.6965 28.0741ZM86.2302 27.9989C85.5329 27.9989 85.0271 27.8531 84.7126 27.5614C84.4027 27.2697 84.2478 26.7889 84.2478 26.119V21.3407H83.0652V20.5887H84.2478V18.6747H85.1775V20.5887H86.866V21.3407H85.1775V25.9139C85.1775 26.3697 85.2663 26.6978 85.4441 26.8983C85.6218 27.0988 85.918 27.1991 86.3328 27.1991C86.4376 27.1991 86.5287 27.1968 86.6062 27.1923C86.6837 27.1877 86.7703 27.1809 86.866 27.1718V27.9442C86.7611 27.9579 86.6563 27.9693 86.5515 27.9784C86.4512 27.9921 86.3441 27.9989 86.2302 27.9989ZM91.0228 28.0741C90.3346 28.0741 89.7399 27.9191 89.2386 27.6093C88.7418 27.2994 88.359 26.8619 88.0901 26.2968C87.8213 25.7316 87.6868 25.064 87.6868 24.2938V24.2802C87.6868 23.5145 87.8213 22.8469 88.0901 22.2772C88.359 21.703 88.7373 21.2587 89.2249 20.9442C89.7171 20.6252 90.2913 20.4657 90.9476 20.4657C91.6084 20.4657 92.1757 20.6206 92.6497 20.9305C93.1282 21.2359 93.4951 21.6643 93.7503 22.2157C94.0101 22.7626 94.1399 23.3983 94.1399 24.1229V24.5057H88.1517V23.7675H93.6819L93.2376 24.4305V24.0887C93.2376 23.4735 93.1396 22.9585 92.9437 22.5438C92.7522 22.1246 92.4834 21.8078 92.137 21.5936C91.7952 21.3794 91.3987 21.2723 90.9476 21.2723C90.4918 21.2723 90.0885 21.3817 89.7376 21.6005C89.3867 21.8192 89.1087 22.1405 88.9036 22.5643C88.7031 22.9836 88.6028 23.4917 88.6028 24.0887V24.4305C88.6028 25.0184 88.7031 25.5243 88.9036 25.9481C89.1041 26.3719 89.3867 26.6978 89.7513 26.9257C90.1159 27.1535 90.5465 27.2675 91.0433 27.2675C91.3987 27.2675 91.7155 27.2173 91.9935 27.1171C92.276 27.0168 92.5107 26.8846 92.6976 26.7206C92.8844 26.552 93.0188 26.3742 93.1009 26.1874L93.1214 26.1327H94.0306L94.0101 26.1874C93.9371 26.438 93.8164 26.6773 93.6478 26.9052C93.4837 27.1285 93.2741 27.329 93.0188 27.5067C92.7636 27.6799 92.4674 27.8189 92.1302 27.9237C91.7975 28.024 91.4284 28.0741 91.0228 28.0741ZM100.765 28.0741C100.291 28.0741 99.8696 27.9875 99.5004 27.8143C99.1313 27.6366 98.8396 27.3859 98.6254 27.0624C98.4112 26.7388 98.3041 26.3583 98.3041 25.9208V25.9071C98.3041 25.4833 98.4067 25.1187 98.6117 24.8134C98.8168 24.5035 99.1176 24.2619 99.5141 24.0887C99.9106 23.911 100.391 23.8039 100.956 23.7675L103.705 23.5897V24.3212L101.08 24.4989C100.451 24.5399 99.9835 24.6789 99.6781 24.9159C99.3774 25.1483 99.227 25.4742 99.227 25.8934V25.9071C99.227 26.3309 99.3865 26.6682 99.7055 26.9188C100.025 27.1649 100.435 27.288 100.936 27.288C101.378 27.288 101.772 27.1968 102.119 27.0145C102.469 26.8277 102.747 26.577 102.953 26.2626C103.158 25.9481 103.26 25.5972 103.26 25.2098V22.9266C103.26 22.3843 103.101 21.9719 102.782 21.6893C102.463 21.4068 102.005 21.2655 101.408 21.2655C100.906 21.2655 100.489 21.3635 100.157 21.5594C99.824 21.7554 99.6075 22.038 99.5072 22.4071L99.5004 22.4208H98.5981L98.6049 22.3934C98.6687 21.9969 98.8282 21.6552 99.0834 21.368C99.3386 21.0809 99.6668 20.8599 100.068 20.705C100.469 20.5455 100.925 20.4657 101.435 20.4657C102.014 20.4657 102.506 20.5637 102.912 20.7596C103.317 20.951 103.625 21.229 103.834 21.5936C104.049 21.9582 104.156 22.4003 104.156 22.9198V27.951H103.26V26.6796H103.171C103.025 26.9712 102.834 27.2219 102.597 27.4315C102.36 27.6366 102.087 27.7961 101.777 27.91C101.467 28.0194 101.13 28.0741 100.765 28.0741ZM105.872 27.951V20.5887H106.774V21.8807H106.856C107.052 21.4341 107.346 21.0878 107.738 20.8417C108.135 20.591 108.618 20.4657 109.187 20.4657C110.012 20.4657 110.648 20.7027 111.095 21.1766C111.546 21.646 111.771 22.3068 111.771 23.1591V27.951H110.876V23.3846C110.876 22.6874 110.714 22.161 110.391 21.8055C110.072 21.4455 109.593 21.2655 108.955 21.2655C108.522 21.2655 108.142 21.3612 107.813 21.5526C107.485 21.744 107.23 22.0129 107.048 22.3593C106.866 22.7056 106.774 23.1112 106.774 23.576V27.951H105.872ZM116.025 27.951L119.716 18.0868H120.434V19.3104H120.133L117.002 27.951H116.025ZM117.617 24.9227L117.904 24.1229H122.457L122.744 24.9227H117.617ZM123.346 27.951L120.215 19.3104V18.0868H120.639L124.33 27.951H123.346ZM128.008 28.0741C127.329 28.0741 126.742 27.9191 126.245 27.6093C125.748 27.2948 125.363 26.8505 125.09 26.2762C124.821 25.702 124.686 25.0275 124.686 24.2528V24.2391C124.686 23.469 124.821 22.8036 125.09 22.243C125.358 21.6779 125.741 21.2404 126.238 20.9305C126.739 20.6206 127.327 20.4657 128.002 20.4657C128.562 20.4657 129.054 20.566 129.478 20.7665C129.902 20.9624 130.244 21.2313 130.504 21.5731C130.768 21.9149 130.939 22.3 131.016 22.7284V22.7557H130.121V22.7421C130.011 22.3182 129.772 21.9673 129.403 21.6893C129.034 21.4068 128.567 21.2655 128.002 21.2655C127.514 21.2655 127.09 21.3885 126.73 21.6346C126.37 21.8762 126.092 22.2203 125.896 22.6669C125.7 23.1089 125.602 23.633 125.602 24.2391V24.2528C125.602 24.8635 125.7 25.3967 125.896 25.8524C126.097 26.3036 126.377 26.6545 126.737 26.9052C127.097 27.1512 127.519 27.2743 128.002 27.2743C128.548 27.2743 129.002 27.1512 129.362 26.9052C129.727 26.6591 129.975 26.3127 130.107 25.8661L130.121 25.8319L131.009 25.8251L131.003 25.8866C130.907 26.315 130.729 26.6955 130.469 27.0282C130.214 27.3563 129.879 27.6138 129.465 27.8007C129.054 27.983 128.569 28.0741 128.008 28.0741ZM135.282 28.0741C134.603 28.0741 134.016 27.9191 133.519 27.6093C133.022 27.2948 132.637 26.8505 132.363 26.2762C132.095 25.702 131.96 25.0275 131.96 24.2528V24.2391C131.96 23.469 132.095 22.8036 132.363 22.243C132.632 21.6779 133.015 21.2404 133.512 20.9305C134.013 20.6206 134.601 20.4657 135.276 20.4657C135.836 20.4657 136.328 20.566 136.752 20.7665C137.176 20.9624 137.518 21.2313 137.778 21.5731C138.042 21.9149 138.213 22.3 138.29 22.7284V22.7557H137.395V22.7421C137.285 22.3182 137.046 21.9673 136.677 21.6893C136.308 21.4068 135.841 21.2655 135.276 21.2655C134.788 21.2655 134.364 21.3885 134.004 21.6346C133.644 21.8762 133.366 22.2203 133.17 22.6669C132.974 23.1089 132.876 23.633 132.876 24.2391V24.2528C132.876 24.8635 132.974 25.3967 133.17 25.8524C133.371 26.3036 133.651 26.6545 134.011 26.9052C134.371 27.1512 134.793 27.2743 135.276 27.2743C135.822 27.2743 136.276 27.1512 136.636 26.9052C137.001 26.6591 137.249 26.3127 137.381 25.8661L137.395 25.8319L138.283 25.8251L138.277 25.8866C138.181 26.315 138.003 26.6955 137.743 27.0282C137.488 27.3563 137.153 27.6138 136.738 27.8007C136.328 27.983 135.843 28.0741 135.282 28.0741ZM142.577 28.0741C141.893 28.0741 141.301 27.9214 140.8 27.6161C140.298 27.3062 139.911 26.8664 139.637 26.2968C139.369 25.7271 139.234 25.0526 139.234 24.2733V24.2596C139.234 23.4803 139.369 22.8059 139.637 22.2362C139.911 21.6665 140.298 21.229 140.8 20.9237C141.301 20.6184 141.893 20.4657 142.577 20.4657C143.265 20.4657 143.858 20.6184 144.354 20.9237C144.856 21.229 145.241 21.6665 145.51 22.2362C145.783 22.8059 145.92 23.4803 145.92 24.2596V24.2733C145.92 25.0526 145.783 25.7271 145.51 26.2968C145.241 26.8664 144.856 27.3062 144.354 27.6161C143.858 27.9214 143.265 28.0741 142.577 28.0741ZM142.577 27.2743C143.083 27.2743 143.516 27.1535 143.876 26.912C144.24 26.6705 144.518 26.3264 144.71 25.8798C144.906 25.4286 145.004 24.8931 145.004 24.2733V24.2596C145.004 23.6399 144.906 23.1066 144.71 22.66C144.518 22.2089 144.24 21.8648 143.876 21.6278C143.516 21.3863 143.083 21.2655 142.577 21.2655C142.071 21.2655 141.636 21.3863 141.271 21.6278C140.911 21.8648 140.633 22.2066 140.437 22.6532C140.246 23.0998 140.15 23.6353 140.15 24.2596V24.2733C140.15 24.8931 140.246 25.4286 140.437 25.8798C140.633 26.3264 140.911 26.6705 141.271 26.912C141.636 27.1535 142.071 27.2743 142.577 27.2743ZM149.824 28.0741C149.277 28.0741 148.81 27.967 148.422 27.7528C148.035 27.5386 147.741 27.2287 147.54 26.8231C147.34 26.4175 147.24 25.9344 147.24 25.3739V20.5887H148.142V25.1483C148.142 25.8365 148.299 26.3628 148.614 26.7274C148.933 27.092 149.409 27.2743 150.042 27.2743C150.384 27.2743 150.689 27.2196 150.958 27.1102C151.232 27.0009 151.464 26.8459 151.656 26.6454C151.847 26.4403 151.991 26.1965 152.086 25.9139C152.187 25.6314 152.237 25.3147 152.237 24.9637V20.5887H153.139V27.951H152.237V26.6659H152.155C152.036 26.9576 151.868 27.2105 151.649 27.4247C151.43 27.6343 151.166 27.7961 150.856 27.91C150.55 28.0194 150.206 28.0741 149.824 28.0741ZM154.89 27.951V20.5887H155.792V21.8807H155.874C156.07 21.4341 156.364 21.0878 156.756 20.8417C157.152 20.591 157.635 20.4657 158.205 20.4657C159.03 20.4657 159.666 20.7027 160.112 21.1766C160.563 21.646 160.789 22.3068 160.789 23.1591V27.951H159.893V23.3846C159.893 22.6874 159.732 22.161 159.408 21.8055C159.089 21.4455 158.611 21.2655 157.973 21.2655C157.54 21.2655 157.159 21.3612 156.831 21.5526C156.503 21.744 156.248 22.0129 156.065 22.3593C155.883 22.7056 155.792 23.1112 155.792 23.576V27.951H154.89ZM164.905 27.9989C164.207 27.9989 163.702 27.8531 163.387 27.5614C163.077 27.2697 162.922 26.7889 162.922 26.119V21.3407H161.74V20.5887H162.922V18.6747H163.852V20.5887H165.54V21.3407H163.852V25.9139C163.852 26.3697 163.941 26.6978 164.119 26.8983C164.296 27.0988 164.593 27.1991 165.007 27.1991C165.112 27.1991 165.203 27.1968 165.281 27.1923C165.358 27.1877 165.445 27.1809 165.54 27.1718V27.9442C165.436 27.9579 165.331 27.9693 165.226 27.9784C165.126 27.9921 165.019 27.9989 164.905 27.9989Z" fill="white" fill-opacity="0.75"/>
</svg>
