<svg width="232" height="47" viewBox="0 0 232 47" fill="none" xmlns="http://www.w3.org/2000/svg">
<path d="M1 5.30809V1.43103H171.021" stroke="white"/>
<path d="M230.797 42.6545L230.797 45.8907H108.086" stroke="white"/>
<path d="M59.5063 28.6501C58.5949 28.6501 57.8042 28.4405 57.1343 28.0212C56.4689 27.602 55.9562 27.0072 55.5962 26.2371C55.2362 25.4669 55.0562 24.5509 55.0562 23.489V23.4753C55.0562 22.4089 55.2362 21.4906 55.5962 20.7205C55.9562 19.9503 56.4689 19.3556 57.1343 18.9363C57.7996 18.517 58.5903 18.3074 59.5063 18.3074C60.231 18.3074 60.8849 18.4509 61.4683 18.738C62.0562 19.0206 62.5369 19.4125 62.9106 19.9138C63.2889 20.4151 63.519 20.9916 63.6011 21.6433V21.6843H62.0767L62.0698 21.657C61.9787 21.2514 61.8123 20.9005 61.5708 20.6042C61.3293 20.308 61.033 20.0779 60.6821 19.9138C60.3312 19.7498 59.9393 19.6677 59.5063 19.6677C58.9185 19.6677 58.408 19.8227 57.9751 20.1326C57.5467 20.4425 57.214 20.8822 56.9771 21.4519C56.7446 22.017 56.6284 22.6915 56.6284 23.4753V23.489C56.6284 24.2638 56.7446 24.936 56.9771 25.5056C57.214 26.0753 57.5467 26.5151 57.9751 26.825C58.408 27.1348 58.9207 27.2898 59.5132 27.2898C59.9461 27.2898 60.3381 27.2169 60.689 27.071C61.0444 26.9252 61.3407 26.7179 61.5776 26.449C61.8146 26.1755 61.9764 25.8542 62.063 25.4851L62.0767 25.4578H63.6079L63.6011 25.4919C63.5054 26.1254 63.2729 26.6791 62.9038 27.1531C62.5347 27.627 62.0607 27.9962 61.4819 28.2605C60.9032 28.5203 60.2446 28.6501 59.5063 28.6501ZM64.8868 28.4109V20.9871H66.3702V22.1082H66.4864C66.6185 21.7117 66.851 21.4041 67.1837 21.1853C67.5209 20.9666 67.9356 20.8572 68.4278 20.8572C68.5508 20.8572 68.6716 20.864 68.7901 20.8777C68.9086 20.8914 69.0043 20.9073 69.0772 20.9255V22.2927C68.945 22.2654 68.8129 22.2449 68.6807 22.2312C68.5531 22.2175 68.4187 22.2107 68.2774 22.2107C67.8991 22.2107 67.5665 22.2836 67.2794 22.4294C66.9968 22.5753 66.7735 22.7804 66.6094 23.0447C66.4499 23.3044 66.3702 23.6143 66.3702 23.9744V28.4109H64.8868ZM72.8717 28.5544C72.1471 28.5544 71.525 28.3995 71.0055 28.0896C70.486 27.7751 70.0849 27.3308 69.8024 26.7566C69.5244 26.1824 69.3854 25.5033 69.3854 24.7195V24.7126C69.3854 23.9379 69.5244 23.2611 69.8024 22.6824C70.0849 22.1036 70.4814 21.6524 70.9918 21.3289C71.5068 21.0053 72.1084 20.8435 72.7965 20.8435C73.4892 20.8435 74.0839 20.9985 74.5807 21.3083C75.082 21.6182 75.4671 22.0535 75.736 22.614C76.0048 23.17 76.1393 23.8217 76.1393 24.5691V25.0886H70.1373V24.0291H75.401L74.6901 25.0134V24.4187C74.6901 23.8901 74.608 23.4526 74.444 23.1062C74.2845 22.7553 74.0634 22.4932 73.7809 22.3201C73.4983 22.1469 73.1725 22.0603 72.8033 22.0603C72.4342 22.0603 72.1038 22.1514 71.8121 22.3337C71.525 22.5115 71.2972 22.7758 71.1285 23.1267C70.9645 23.4776 70.8824 23.9083 70.8824 24.4187V25.0134C70.8824 25.5011 70.9645 25.9181 71.1285 26.2644C71.2926 26.6108 71.525 26.8751 71.8258 27.0574C72.1311 27.2397 72.4912 27.3308 72.9059 27.3308C73.2249 27.3308 73.4983 27.2875 73.7262 27.2009C73.9586 27.1098 74.1477 26.9981 74.2936 26.866C74.444 26.7338 74.5465 26.6039 74.6012 26.4763L74.6285 26.4216H76.0641L76.0504 26.4832C75.9866 26.7292 75.875 26.9753 75.7154 27.2214C75.5559 27.463 75.344 27.684 75.0797 27.8845C74.8199 28.085 74.5055 28.2468 74.1363 28.3699C73.7718 28.4929 73.3502 28.5544 72.8717 28.5544ZM79.3801 28.5339C78.9107 28.5339 78.4891 28.4451 78.1154 28.2673C77.7463 28.085 77.4546 27.8276 77.2404 27.4949C77.0262 27.1622 76.9191 26.7725 76.9191 26.3259V26.3123C76.9191 25.8656 77.0262 25.4851 77.2404 25.1707C77.4592 24.8562 77.7736 24.6101 78.1838 24.4324C78.5985 24.2501 79.0998 24.1407 79.6877 24.1042L82.4289 23.9402V24.9861L79.8928 25.1501C79.3823 25.182 79.0064 25.2914 78.7648 25.4783C78.5233 25.6606 78.4025 25.9181 78.4025 26.2507V26.2644C78.4025 26.6016 78.5324 26.8682 78.7922 27.0642C79.0519 27.2556 79.3801 27.3513 79.7765 27.3513C80.1457 27.3513 80.4738 27.2784 80.7609 27.1326C81.0526 26.9822 81.2804 26.7817 81.4445 26.531C81.6086 26.2758 81.6906 25.9887 81.6906 25.6697V23.3318C81.6906 22.9216 81.563 22.6095 81.3078 22.3953C81.0571 22.1765 80.6834 22.0671 80.1867 22.0671C79.772 22.0671 79.4325 22.1401 79.1681 22.2859C78.9084 22.4317 78.7352 22.6368 78.6486 22.9011L78.6349 22.9216H77.2062L77.2131 22.8738C77.2723 22.4636 77.4341 22.1082 77.6984 21.8074C77.9673 21.502 78.3182 21.2651 78.7512 21.0964C79.1887 20.9278 79.6877 20.8435 80.2482 20.8435C80.8726 20.8435 81.4012 20.9438 81.8342 21.1443C82.2717 21.3403 82.6021 21.6251 82.8254 21.9988C83.0532 22.3679 83.1672 22.8123 83.1672 23.3318V28.4109H81.6906V27.3582H81.5812C81.4354 27.6088 81.2531 27.823 81.0344 28.0007C80.8156 28.1739 80.5672 28.3061 80.2892 28.3972C80.0112 28.4884 79.7082 28.5339 79.3801 28.5339ZM87.5017 28.4587C86.6905 28.4587 86.1026 28.3038 85.738 27.9939C85.378 27.6794 85.198 27.1667 85.198 26.4558V22.156H84.0359V20.9871H85.198V19.114H86.7156V20.9871H88.3083V22.156H86.7156V26.0935C86.7156 26.4945 86.7953 26.7839 86.9548 26.9617C87.1143 27.1348 87.3787 27.2214 87.7478 27.2214C87.8572 27.2214 87.9506 27.2192 88.0281 27.2146C88.1101 27.21 88.2035 27.2032 88.3083 27.1941V28.3835C88.1899 28.4018 88.0622 28.4177 87.9255 28.4314C87.7888 28.4496 87.6475 28.4587 87.5017 28.4587ZM92.5198 28.5544C91.7952 28.5544 91.1731 28.3995 90.6536 28.0896C90.1341 27.7751 89.733 27.3308 89.4505 26.7566C89.1725 26.1824 89.0335 25.5033 89.0335 24.7195V24.7126C89.0335 23.9379 89.1725 23.2611 89.4505 22.6824C89.733 22.1036 90.1295 21.6524 90.6399 21.3289C91.1549 21.0053 91.7565 20.8435 92.4446 20.8435C93.1373 20.8435 93.7321 20.9985 94.2288 21.3083C94.7301 21.6182 95.1152 22.0535 95.3841 22.614C95.653 23.17 95.7874 23.8217 95.7874 24.5691V25.0886H89.7854V24.0291H95.0491L94.3382 25.0134V24.4187C94.3382 23.8901 94.2562 23.4526 94.0921 23.1062C93.9326 22.7553 93.7116 22.4932 93.429 22.3201C93.1465 22.1469 92.8206 22.0603 92.4515 22.0603C92.0823 22.0603 91.7519 22.1514 91.4603 22.3337C91.1731 22.5115 90.9453 22.7758 90.7767 23.1267C90.6126 23.4776 90.5306 23.9083 90.5306 24.4187V25.0134C90.5306 25.5011 90.6126 25.9181 90.7767 26.2644C90.9407 26.6108 91.1731 26.8751 91.4739 27.0574C91.7793 27.2397 92.1393 27.3308 92.554 27.3308C92.873 27.3308 93.1465 27.2875 93.3743 27.2009C93.6067 27.1098 93.7959 26.9981 93.9417 26.866C94.0921 26.7338 94.1946 26.6039 94.2493 26.4763L94.2767 26.4216H95.7122L95.6985 26.4832C95.6347 26.7292 95.5231 26.9753 95.3636 27.2214C95.2041 27.463 94.9922 27.684 94.7278 27.8845C94.4681 28.085 94.1536 28.2468 93.7845 28.3699C93.4199 28.4929 92.9983 28.5544 92.5198 28.5544ZM102.283 28.5339C101.813 28.5339 101.392 28.4451 101.018 28.2673C100.649 28.085 100.357 27.8276 100.143 27.4949C99.9288 27.1622 99.8217 26.7725 99.8217 26.3259V26.3123C99.8217 25.8656 99.9288 25.4851 100.143 25.1707C100.362 24.8562 100.676 24.6101 101.086 24.4324C101.501 24.2501 102.002 24.1407 102.59 24.1042L105.331 23.9402V24.9861L102.795 25.1501C102.285 25.182 101.909 25.2914 101.667 25.4783C101.426 25.6606 101.305 25.9181 101.305 26.2507V26.2644C101.305 26.6016 101.435 26.8682 101.695 27.0642C101.955 27.2556 102.283 27.3513 102.679 27.3513C103.048 27.3513 103.376 27.2784 103.663 27.1326C103.955 26.9822 104.183 26.7817 104.347 26.531C104.511 26.2758 104.593 25.9887 104.593 25.6697V23.3318C104.593 22.9216 104.466 22.6095 104.21 22.3953C103.96 22.1765 103.586 22.0671 103.089 22.0671C102.675 22.0671 102.335 22.1401 102.071 22.2859C101.811 22.4317 101.638 22.6368 101.551 22.9011L101.538 22.9216H100.109L100.116 22.8738C100.175 22.4636 100.337 22.1082 100.601 21.8074C100.87 21.502 101.221 21.2651 101.654 21.0964C102.091 20.9278 102.59 20.8435 103.151 20.8435C103.775 20.8435 104.304 20.9438 104.737 21.1443C105.174 21.3403 105.505 21.6251 105.728 21.9988C105.956 22.3679 106.07 22.8123 106.07 23.3318V28.4109H104.593V27.3582H104.484C104.338 27.6088 104.156 27.823 103.937 28.0007C103.718 28.1739 103.47 28.3061 103.192 28.3972C102.914 28.4884 102.611 28.5339 102.283 28.5339ZM107.602 28.4109V20.9871H109.085V22.1082H109.201C109.383 21.7117 109.652 21.4018 110.008 21.1785C110.363 20.9552 110.812 20.8435 111.354 20.8435C112.188 20.8435 112.826 21.0828 113.269 21.5613C113.711 22.0398 113.932 22.7211 113.932 23.6052V28.4109H112.441V23.9539C112.441 23.3341 112.312 22.8738 112.052 22.573C111.797 22.2677 111.395 22.115 110.849 22.115C110.489 22.115 110.176 22.1947 109.912 22.3542C109.648 22.5092 109.443 22.7325 109.297 23.0242C109.156 23.3113 109.085 23.6554 109.085 24.0564V28.4109H107.602ZM118.103 28.4109L121.664 18.5466H122.901V20.2761H122.437L119.716 28.4109H118.103ZM119.818 25.7449L120.249 24.5144H124.74L125.171 25.7449H119.818ZM125.267 28.4109L122.553 20.2761V18.5466H123.325L126.88 28.4109H125.267ZM130.579 28.5544C129.859 28.5544 129.237 28.3995 128.713 28.0896C128.193 27.7751 127.792 27.3285 127.509 26.7498C127.227 26.171 127.086 25.4806 127.086 24.6785V24.6648C127.086 23.8764 127.225 23.1973 127.503 22.6277C127.785 22.058 128.186 21.6182 128.706 21.3083C129.23 20.9985 129.852 20.8435 130.572 20.8435C131.196 20.8435 131.732 20.9529 132.178 21.1716C132.63 21.3858 132.987 21.682 133.252 22.0603C133.52 22.434 133.689 22.8601 133.757 23.3386L133.764 23.3728H132.336L132.329 23.3591C132.247 22.9945 132.058 22.6915 131.761 22.45C131.465 22.2039 131.071 22.0808 130.579 22.0808C130.169 22.0808 129.815 22.1856 129.519 22.3953C129.223 22.6003 128.995 22.8966 128.836 23.2839C128.681 23.6713 128.603 24.1316 128.603 24.6648V24.6785C128.603 25.2253 128.683 25.6947 128.842 26.0867C129.002 26.4786 129.23 26.7817 129.526 26.9958C129.822 27.2055 130.173 27.3103 130.579 27.3103C131.044 27.3103 131.42 27.2078 131.707 27.0027C131.998 26.7976 132.203 26.4945 132.322 26.0935L132.336 26.0593L133.757 26.0525L133.744 26.114C133.657 26.5971 133.482 27.0209 133.217 27.3855C132.953 27.7501 132.6 28.0372 132.158 28.2468C131.72 28.4519 131.194 28.5544 130.579 28.5544ZM138.003 28.5544C137.283 28.5544 136.661 28.3995 136.137 28.0896C135.617 27.7751 135.216 27.3285 134.934 26.7498C134.651 26.171 134.51 25.4806 134.51 24.6785V24.6648C134.51 23.8764 134.649 23.1973 134.927 22.6277C135.21 22.058 135.611 21.6182 136.13 21.3083C136.654 20.9985 137.276 20.8435 137.996 20.8435C138.621 20.8435 139.156 20.9529 139.603 21.1716C140.054 21.3858 140.412 21.682 140.676 22.0603C140.945 22.434 141.113 22.8601 141.182 23.3386L141.189 23.3728H139.76L139.753 23.3591C139.671 22.9945 139.482 22.6915 139.186 22.45C138.89 22.2039 138.495 22.0808 138.003 22.0808C137.593 22.0808 137.24 22.1856 136.944 22.3953C136.647 22.6003 136.419 22.8966 136.26 23.2839C136.105 23.6713 136.028 24.1316 136.028 24.6648V24.6785C136.028 25.2253 136.107 25.6947 136.267 26.0867C136.426 26.4786 136.654 26.7817 136.95 26.9958C137.247 27.2055 137.598 27.3103 138.003 27.3103C138.468 27.3103 138.844 27.2078 139.131 27.0027C139.423 26.7976 139.628 26.4945 139.746 26.0935L139.76 26.0593L141.182 26.0525L141.168 26.114C141.082 26.5971 140.906 27.0209 140.642 27.3855C140.377 27.7501 140.024 28.0372 139.582 28.2468C139.145 28.4519 138.618 28.5544 138.003 28.5544ZM145.448 28.5544C144.723 28.5544 144.097 28.3995 143.568 28.0896C143.044 27.7797 142.641 27.3376 142.358 26.7634C142.076 26.1847 141.934 25.4988 141.934 24.7058V24.6921C141.934 23.8946 142.076 23.2087 142.358 22.6345C142.645 22.0603 143.051 21.6182 143.575 21.3083C144.104 20.9985 144.728 20.8435 145.448 20.8435C146.173 20.8435 146.797 20.9985 147.321 21.3083C147.845 21.6137 148.248 22.0557 148.531 22.6345C148.818 23.2087 148.962 23.8946 148.962 24.6921V24.7058C148.962 25.4988 148.818 26.1847 148.531 26.7634C148.248 27.3376 147.845 27.7797 147.321 28.0896C146.802 28.3995 146.177 28.5544 145.448 28.5544ZM145.448 27.3103C145.872 27.3103 146.232 27.2078 146.528 27.0027C146.824 26.7931 147.05 26.4945 147.205 26.1072C147.36 25.7198 147.437 25.2527 147.437 24.7058V24.6921C147.437 24.1407 147.36 23.6713 147.205 23.2839C147.05 22.8966 146.824 22.6003 146.528 22.3953C146.232 22.1856 145.872 22.0808 145.448 22.0808C145.024 22.0808 144.664 22.1856 144.368 22.3953C144.072 22.6003 143.844 22.8966 143.684 23.2839C143.529 23.6713 143.452 24.1407 143.452 24.6921V24.7058C143.452 25.2527 143.529 25.7198 143.684 26.1072C143.844 26.4945 144.072 26.7931 144.368 27.0027C144.664 27.2078 145.024 27.3103 145.448 27.3103ZM152.64 28.5544C152.084 28.5544 151.615 28.4473 151.232 28.2332C150.854 28.0144 150.569 27.7 150.377 27.2898C150.19 26.8751 150.097 26.3761 150.097 25.7927V20.9871H151.58V25.4441C151.58 26.0548 151.701 26.5128 151.943 26.8181C152.184 27.1235 152.578 27.2761 153.125 27.2761C153.417 27.2761 153.677 27.2328 153.905 27.1462C154.132 27.0551 154.324 26.9252 154.479 26.7566C154.634 26.588 154.748 26.3852 154.821 26.1482C154.898 25.9112 154.937 25.6423 154.937 25.3416V20.9871H156.427V28.4109H154.937V27.2898H154.827C154.709 27.5541 154.547 27.782 154.342 27.9734C154.137 28.1602 153.891 28.3038 153.604 28.4041C153.321 28.5043 153 28.5544 152.64 28.5544ZM158 28.4109V20.9871H159.483V22.1082H159.6C159.782 21.7117 160.051 21.4018 160.406 21.1785C160.762 20.9552 161.211 20.8435 161.753 20.8435C162.587 20.8435 163.225 21.0828 163.667 21.5613C164.109 22.0398 164.33 22.7211 164.33 23.6052V28.4109H162.84V23.9539C162.84 23.3341 162.71 22.8738 162.45 22.573C162.195 22.2677 161.794 22.115 161.247 22.115C160.887 22.115 160.575 22.1947 160.31 22.3542C160.046 22.5092 159.841 22.7325 159.695 23.0242C159.554 23.3113 159.483 23.6554 159.483 24.0564V28.4109H158ZM168.637 28.4587C167.826 28.4587 167.238 28.3038 166.873 27.9939C166.513 27.6794 166.333 27.1667 166.333 26.4558V22.156H165.171V20.9871H166.333V19.114H167.851V20.9871H169.444V22.156H167.851V26.0935C167.851 26.4945 167.931 26.7839 168.09 26.9617C168.25 27.1348 168.514 27.2214 168.883 27.2214C168.993 27.2214 169.086 27.2192 169.164 27.2146C169.246 27.21 169.339 27.2032 169.444 27.1941V28.3835C169.325 28.4018 169.198 28.4177 169.061 28.4314C168.924 28.4496 168.783 28.4587 168.637 28.4587Z" fill="white"/>
</svg>
