<svg width="480" height="363" viewBox="0 0 480 363" fill="none" xmlns="http://www.w3.org/2000/svg">
<path d="M27.1814 44.2063L25.0163 47.9563H29.3465L27.1814 44.2063ZM27.1814 287.281H26.8064V287.656H27.1814V287.281ZM479.397 287.281L475.647 285.116V289.446L479.397 287.281ZM26.8064 47.1949V49.1873H27.5564V47.1949H26.8064ZM26.8064 51.1798V53.1722H27.5564V51.1798H26.8064ZM26.8064 55.1646V57.157H27.5564V55.1646H26.8064ZM26.8064 59.1494V61.1418H27.5564V59.1494H26.8064ZM26.8064 63.1342V65.1267H27.5564V63.1342H26.8064ZM26.8064 67.1191V69.1115H27.5564V67.1191H26.8064ZM26.8064 71.1039V73.0963H27.5564V71.1039H26.8064ZM26.8064 75.0887V77.0812H27.5564V75.0887H26.8064ZM26.8064 79.0736V81.066H27.5564V79.0736H26.8064ZM26.8064 83.0584V85.0508H27.5564V83.0584H26.8064ZM26.8064 87.0432V89.0357H27.5564V87.0432H26.8064ZM26.8064 91.0281V93.0205H27.5564V91.0281H26.8064ZM26.8064 95.0129V97.0053H27.5564V95.0129H26.8064ZM26.8064 98.9977V100.99H27.5564V98.9977H26.8064ZM26.8064 102.983V104.975H27.5564V102.983H26.8064ZM26.8064 106.967V108.96H27.5564V106.967H26.8064ZM26.8064 110.952V112.945H27.5564V110.952H26.8064ZM26.8064 114.937V116.929H27.5564V114.937H26.8064ZM26.8064 118.922V120.914H27.5564V118.922H26.8064ZM26.8064 122.907V124.899H27.5564V122.907H26.8064ZM26.8064 126.892V128.884H27.5564V126.892H26.8064ZM26.8064 130.876V132.869H27.5564V130.876H26.8064ZM26.8064 134.861V136.854H27.5564V134.861H26.8064ZM26.8064 138.846V140.838H27.5564V138.846H26.8064ZM26.8064 142.831V144.823H27.5564V142.831H26.8064ZM26.8064 146.816V148.808H27.5564V146.816H26.8064ZM26.8064 150.801V152.793H27.5564V150.801H26.8064ZM26.8064 154.785V156.778H27.5564V154.785H26.8064ZM26.8064 158.77V160.763H27.5564V158.77H26.8064ZM26.8064 162.755V164.747H27.5564V162.755H26.8064ZM26.8064 166.74V168.732H27.5564V166.74H26.8064ZM26.8064 170.725V172.717H27.5564V170.725H26.8064ZM26.8064 174.71V176.702H27.5564V174.71H26.8064ZM26.8064 178.694V180.687H27.5564V178.694H26.8064ZM26.8064 182.679V184.672H27.5564V182.679H26.8064ZM26.8064 186.664V188.656H27.5564V186.664H26.8064ZM26.8064 190.649V192.641H27.5564V190.649H26.8064ZM26.8064 194.634V196.626H27.5564V194.634H26.8064ZM26.8064 198.619V200.611H27.5564V198.619H26.8064ZM26.8064 202.603V204.596H27.5564V202.603H26.8064ZM26.8064 206.588V208.581H27.5564V206.588H26.8064ZM26.8064 210.573V212.565H27.5564V210.573H26.8064ZM26.8064 214.558V216.55H27.5564V214.558H26.8064ZM26.8064 218.543V220.535H27.5564V218.543H26.8064ZM26.8064 222.528V224.52H27.5564V222.528H26.8064ZM26.8064 226.512V228.505H27.5564V226.512H26.8064ZM26.8064 230.497V232.49H27.5564V230.497H26.8064ZM26.8064 234.482V236.474H27.5564V234.482H26.8064ZM26.8064 238.467V240.459H27.5564V238.467H26.8064ZM26.8064 242.452V244.444H27.5564V242.452H26.8064ZM26.8064 246.437V248.429H27.5564V246.437H26.8064ZM26.8064 250.421V252.414H27.5564V250.421H26.8064ZM26.8064 254.406V256.399H27.5564V254.406H26.8064ZM26.8064 258.391V260.383H27.5564V258.391H26.8064ZM26.8064 262.376V264.368H27.5564V262.376H26.8064ZM26.8064 266.361V268.353H27.5564V266.361H26.8064ZM26.8064 270.346V272.338H27.5564V270.346H26.8064ZM26.8064 274.33V276.323H27.5564V274.33H26.8064ZM26.8064 278.315V280.308H27.5564V278.315H26.8064ZM26.8064 282.3V284.292H27.5564V282.3H26.8064ZM26.8064 286.285V287.281H27.5564V286.285H26.8064ZM27.1814 287.656H28.1819V286.906H27.1814V287.656ZM30.1828 287.656H32.1838V286.906H30.1828V287.656ZM34.1847 287.656H36.1857V286.906H34.1847V287.656ZM38.1866 287.656H40.1876V286.906H38.1866V287.656ZM42.1886 287.656H44.1895V286.906H42.1886V287.656ZM46.1905 287.656H48.1914V286.906H46.1905V287.656ZM50.1924 287.656H52.1933V286.906H50.1924V287.656ZM54.1943 287.656H56.1952V286.906H54.1943V287.656ZM58.1962 287.656H60.1972V286.906H58.1962V287.656ZM62.1981 287.656H64.1991V286.906H62.1981V287.656ZM66.2 287.656H68.201V286.906H66.2V287.656ZM70.2019 287.656H72.2029V286.906H70.2019V287.656ZM74.2038 287.656H76.2048V286.906H74.2038V287.656ZM78.2057 287.656H80.2067V286.906H78.2057V287.656ZM82.2076 287.656H84.2086V286.906H82.2076V287.656ZM86.2096 287.656H88.2105V286.906H86.2096V287.656ZM90.2115 287.656H92.2124V286.906H90.2115V287.656ZM94.2134 287.656H96.2143V286.906H94.2134V287.656ZM98.2153 287.656H100.216V286.906H98.2153V287.656ZM102.217 287.656H104.218V286.906H102.217V287.656ZM106.219 287.656H108.22V286.906H106.219V287.656ZM110.221 287.656H112.222V286.906H110.221V287.656ZM114.223 287.656H116.224V286.906H114.223V287.656ZM118.225 287.656H120.226V286.906H118.225V287.656ZM122.227 287.656H124.228V286.906H122.227V287.656ZM126.229 287.656H128.23V286.906H126.229V287.656ZM130.231 287.656H132.231V286.906H130.231V287.656ZM134.232 287.656H136.233V286.906H134.232V287.656ZM138.234 287.656H140.235V286.906H138.234V287.656ZM142.236 287.656H144.237V286.906H142.236V287.656ZM146.238 287.656H148.239V286.906H146.238V287.656ZM150.24 287.656H152.241V286.906H150.24V287.656ZM154.242 287.656H156.243V286.906H154.242V287.656ZM158.244 287.656H160.245V286.906H158.244V287.656ZM162.246 287.656H164.247V286.906H162.246V287.656ZM166.248 287.656H168.249V286.906H166.248V287.656ZM170.25 287.656H172.251V286.906H170.25V287.656ZM174.252 287.656H176.253V286.906H174.252V287.656ZM178.254 287.656H180.254V286.906H178.254V287.656ZM182.255 287.656H184.256V286.906H182.255V287.656ZM186.257 287.656H188.258V286.906H186.257V287.656ZM190.259 287.656H192.26V286.906H190.259V287.656ZM194.261 287.656H196.262V286.906H194.261V287.656ZM198.263 287.656H200.264V286.906H198.263V287.656ZM202.265 287.656H204.266V286.906H202.265V287.656ZM206.267 287.656H208.268V286.906H206.267V287.656ZM210.269 287.656H212.27V286.906H210.269V287.656ZM214.271 287.656H216.272V286.906H214.271V287.656ZM218.273 287.656H220.274V286.906H218.273V287.656ZM222.275 287.656H224.276V286.906H222.275V287.656ZM226.277 287.656H228.278V286.906H226.277V287.656ZM230.278 287.656H232.279V286.906H230.278V287.656ZM234.28 287.656H236.281V286.906H234.28V287.656ZM238.282 287.656H240.283V286.906H238.282V287.656ZM242.284 287.656H244.285V286.906H242.284V287.656ZM246.286 287.656H248.287V286.906H246.286V287.656ZM250.288 287.656H252.289V286.906H250.288V287.656ZM254.29 287.656H256.291V286.906H254.29V287.656ZM258.292 287.656H260.293V286.906H258.292V287.656ZM262.294 287.656H264.295V286.906H262.294V287.656ZM266.296 287.656H268.297V286.906H266.296V287.656ZM270.298 287.656H272.299V286.906H270.298V287.656ZM274.3 287.656H276.301V286.906H274.3V287.656ZM278.302 287.656H280.303V286.906H278.302V287.656ZM282.303 287.656H284.304V286.906H282.303V287.656ZM286.305 287.656H288.306V286.906H286.305V287.656ZM290.307 287.656H292.308V286.906H290.307V287.656ZM294.309 287.656H296.31V286.906H294.309V287.656ZM298.311 287.656H300.312V286.906H298.311V287.656ZM302.313 287.656H304.314V286.906H302.313V287.656ZM306.315 287.656H308.316V286.906H306.315V287.656ZM310.317 287.656H312.318V286.906H310.317V287.656ZM314.319 287.656H316.32V286.906H314.319V287.656ZM318.321 287.656H320.321V286.906H318.321V287.656ZM322.322 287.656H324.323V286.906H322.322V287.656ZM326.324 287.656H328.325V286.906H326.324V287.656ZM330.326 287.656H332.327V286.906H330.326V287.656ZM334.328 287.656H336.329V286.906H334.328V287.656ZM338.33 287.656H340.331V286.906H338.33V287.656ZM342.332 287.656H344.333V286.906H342.332V287.656ZM346.334 287.656H348.335V286.906H346.334V287.656ZM350.336 287.656H352.337V286.906H350.336V287.656ZM354.338 287.656H356.338V286.906H354.338V287.656ZM358.339 287.656H360.34V286.906H358.339V287.656ZM362.341 287.656H364.342V286.906H362.341V287.656ZM366.343 287.656H368.344V286.906H366.343V287.656ZM370.345 287.656H372.346V286.906H370.345V287.656ZM374.347 287.656H376.348V286.906H374.347V287.656ZM378.349 287.656H380.35V286.906H378.349V287.656ZM382.351 287.656H384.352V286.906H382.351V287.656ZM386.353 287.656H388.354V286.906H386.353V287.656ZM390.355 287.656H392.356V286.906H390.355V287.656ZM394.356 287.656H396.357V286.906H394.356V287.656ZM398.358 287.656H400.359V286.906H398.358V287.656ZM402.36 287.656H404.361V286.906H402.36V287.656ZM406.362 287.656H408.363V286.906H406.362V287.656ZM410.364 287.656H412.365V286.906H410.364V287.656ZM414.366 287.656H416.367V286.906H414.366V287.656ZM418.368 287.656H420.369V286.906H418.368V287.656ZM422.37 287.656H424.371V286.906H422.37V287.656ZM426.372 287.656H428.373V286.906H426.372V287.656ZM430.374 287.656H432.374V286.906H430.374V287.656ZM434.375 287.656H436.376V286.906H434.375V287.656ZM438.377 287.656H440.378V286.906H438.377V287.656ZM442.379 287.656H444.38V286.906H442.379V287.656ZM446.381 287.656H448.382V286.906H446.381V287.656ZM450.383 287.656H452.384V286.906H450.383V287.656ZM454.385 287.656H456.386V286.906H454.385V287.656ZM458.387 287.656H460.388V286.906H458.387V287.656ZM462.389 287.656H464.39V286.906H462.389V287.656ZM466.391 287.656H468.391V286.906H466.391V287.656ZM470.392 287.656H472.393V286.906H470.392V287.656ZM474.394 287.656H476.395V286.906H474.394V287.656Z" fill="#F2F2F2" fill-opacity="0.5"/>
<path d="M38.906 258.173H50.6918C50.6959 258.173 50.7 258.173 50.704 258.174L67.0785 262.268C67.0945 262.272 67.1115 262.268 67.1238 262.257L71.6985 258.19C71.7109 258.179 71.7279 258.175 71.7439 258.179L88.1041 262.269C88.117 262.273 88.1306 262.271 88.142 262.264L103.493 253.053C103.501 253.049 103.51 253.046 103.519 253.046H125.009C125.027 253.046 125.043 253.037 125.052 253.022L129.632 245.389C129.644 245.37 129.667 245.36 129.689 245.367L144.995 249.959C145.017 249.965 145.041 249.956 145.052 249.937L149.636 242.297C149.643 242.286 149.654 242.278 149.667 242.275L161.934 239.208C161.945 239.205 161.955 239.199 161.962 239.189L168.088 231.021C168.098 231.008 168.112 231.001 168.128 231.001H173.209C173.222 231.001 173.235 230.995 173.245 230.985L192.185 211.534C192.194 211.524 192.207 211.519 192.221 211.519H207.563C207.574 211.519 207.585 211.522 207.594 211.529L232.159 230.977C232.177 230.991 232.201 230.992 232.22 230.979L242.942 223.32C242.951 223.314 242.961 223.31 242.971 223.31H248.067C248.077 223.31 248.086 223.308 248.095 223.302L271.146 208.447C271.151 208.444 271.155 208.44 271.158 208.436L279.321 198.232C279.34 198.209 279.374 198.207 279.396 198.228L282.409 201.242C282.423 201.256 282.444 201.26 282.462 201.254L290.62 198.194C290.63 198.191 290.64 198.19 290.65 198.193L302.397 201.257C302.416 201.262 302.435 201.256 302.447 201.242L325.483 175.647C325.492 175.637 325.506 175.631 325.52 175.631H334.692C334.712 175.631 334.731 175.618 334.738 175.598L340.353 160.795C340.361 160.776 340.379 160.763 340.4 160.763H358.293C358.304 160.763 358.314 160.759 358.323 160.753L386.507 140.255L406.998 122.326C407.009 122.317 407.015 122.303 407.015 122.289V108.519C407.015 108.491 407.037 108.469 407.065 108.469H418.779C418.796 108.469 418.812 108.46 418.821 108.445L438.274 77.7308C438.283 77.7164 438.299 77.7076 438.316 77.7076H442.869C442.889 77.7076 442.908 77.6953 442.915 77.6764L449.555 61.3328C449.563 61.3139 449.581 61.3016 449.601 61.3016H457.222C457.244 61.3016 457.263 61.288 457.27 61.2677L464.399 40.3874C464.413 40.3465 464.469 40.3414 464.49 40.3791L476.227 61.3016" stroke="#4375FB" stroke-width="2.5"/>
<path d="M44.5457 261.249H64.53C64.5371 261.249 64.5441 261.25 64.5506 261.253L80.4241 268.422C80.4306 268.425 80.4376 268.427 80.4447 268.427H93.755C93.7608 268.427 93.7666 268.426 93.772 268.424L123.487 257.665C123.495 257.662 123.504 257.661 123.512 257.662L145.028 261.248C145.031 261.249 145.034 261.249 145.036 261.249H153.229C153.233 261.249 153.237 261.248 153.241 261.248L187.056 253.05C187.067 253.047 187.078 253.048 187.088 253.053L221.92 268.42C221.93 268.424 221.941 268.425 221.951 268.423L253.716 261.25C253.72 261.249 253.724 261.248 253.727 261.246L270.11 253.055C270.121 253.049 270.134 253.048 270.147 253.052L285.494 257.656C285.503 257.659 285.513 257.659 285.523 257.656L321.396 246.894L334.719 244.332C334.724 244.331 334.728 244.329 334.733 244.327L348.558 237.158C348.565 237.155 348.573 237.153 348.581 237.153H369.07C369.074 237.153 369.078 237.152 369.082 237.151L389.071 232.539L402.906 227.927C402.911 227.925 402.916 227.925 402.921 227.925H411.611C411.622 227.925 411.634 227.92 411.643 227.913L425.457 216.145C425.466 216.137 425.478 216.133 425.49 216.133H436.744C436.748 216.133 436.753 216.132 436.757 216.131L465.454 207.932C465.459 207.93 465.463 207.93 465.468 207.93H475.202" stroke="#464EC7" stroke-opacity="0.5" stroke-width="2.5"/>
<path d="M1.68646 88.595V87.425H2.86646V83.895H1.68646V82.785H2.14646C2.91646 82.785 3.13646 82.605 3.13646 82.235V82.155H4.47646V87.425H5.66646V88.595H1.68646ZM9.05817 88.745C7.40817 88.745 6.44817 87.485 6.44817 85.375C6.44817 83.235 7.41817 81.995 9.05817 81.995C10.6982 81.995 11.6682 83.255 11.6682 85.375C11.6682 87.515 10.6882 88.745 9.05817 88.745ZM9.05817 87.475C9.72817 87.475 10.0982 86.735 10.0982 85.375C10.0982 84.015 9.72817 83.265 9.05817 83.265C8.37817 83.265 8.00817 84.005 8.00817 85.375C8.00817 86.715 8.38817 87.475 9.05817 87.475ZM16.0899 88.585L14.4899 86.465L14.2199 86.075L13.9499 86.465L12.3499 88.585H11.9199L13.9999 85.835L12.1099 83.325H12.5799L13.9899 85.215L14.2599 85.595L14.5299 85.215L15.9499 83.325H16.3799L14.4699 85.835L16.5599 88.585H16.0899Z" fill="#F2F2F2" fill-opacity="0.5"/>
<path d="M23.5125 24.2815V17.4815H25.9325C27.5225 17.4815 28.5025 18.3115 28.5025 19.6715C28.5025 21.0615 27.5025 21.8715 25.9525 21.8715H24.6325V24.2815H23.5125ZM25.9225 18.3815H24.6325V20.9715H25.8925C26.8325 20.9715 27.3525 20.4715 27.3525 19.6815C27.3525 18.8915 26.8225 18.3815 25.9225 18.3815ZM29.536 24.2815V18.9515H30.606V19.7415C30.956 19.1015 31.506 18.8115 32.126 18.8115C32.336 18.8115 32.536 18.8615 32.636 18.9515V19.8915C32.476 19.8415 32.286 19.8215 32.066 19.8215C31.046 19.8215 30.606 20.4415 30.606 21.3715V24.2815H29.536ZM33.3641 18.2915V17.0815H34.4341V18.2915H33.3641ZM33.3641 24.2815V18.9515H34.4341V24.2815H33.3641ZM37.0774 24.2815L35.1174 18.9515H36.2674L37.6374 22.9115L37.7674 23.4215L37.8974 22.9115L39.2574 18.9515H40.3474L38.3874 24.2815H37.0774ZM42.0206 20.6915H40.9506C41.1206 19.5115 41.9306 18.8115 43.2606 18.8115C44.7106 18.8115 45.4306 19.6615 45.4306 20.9015V22.9815C45.4306 23.6215 45.4906 23.9915 45.6106 24.2815H44.4906C44.4106 24.0815 44.3806 23.8015 44.3706 23.5015C43.9206 24.1315 43.2306 24.4115 42.5906 24.4115C41.5106 24.4115 40.7706 23.9015 40.7706 22.8815C40.7706 22.1515 41.1706 21.6115 41.9706 21.3415C42.6806 21.1015 43.4006 21.0415 44.3606 21.0315V20.9115C44.3606 20.1315 44.0006 19.7115 43.1806 19.7115C42.4906 19.7115 42.1206 20.0915 42.0206 20.6915ZM41.8506 22.8415C41.8506 23.2915 42.2206 23.5715 42.7906 23.5715C43.6806 23.5715 44.3606 22.8615 44.3606 22.0015V21.7615C42.3106 21.7815 41.8506 22.2315 41.8506 22.8415ZM46.9123 22.6915V19.7815H46.1923V18.9515H46.9123V17.7215H47.9823V18.9515H49.1323V19.7815H47.9823V22.6315C47.9823 23.2415 48.1523 23.5315 48.9023 23.5315H49.1123V24.3115C48.9923 24.3715 48.7423 24.4115 48.4423 24.4115C47.4023 24.4115 46.9123 23.8415 46.9123 22.6915ZM54.6664 22.5415C54.3764 23.7815 53.4564 24.4115 52.2064 24.4115C50.6364 24.4115 49.6764 23.3615 49.6764 21.6215C49.6764 19.8115 50.6364 18.8115 52.1564 18.8115C53.6964 18.8115 54.6264 19.8515 54.6264 21.5615V21.8215H50.7664C50.8264 22.9115 51.3364 23.5215 52.2064 23.5215C52.8864 23.5215 53.3664 23.2015 53.5464 22.5415H54.6664ZM52.1564 19.7015C51.3864 19.7015 50.9264 20.1915 50.7964 21.0915H53.5164C53.3864 20.1915 52.9164 19.7015 52.1564 19.7015ZM57.741 24.2815V17.4815H62.431V18.3815H58.861V20.3215H62.051V21.2115H58.861V23.3815H62.431V24.2815H57.741ZM65.5008 24.4115C64.0908 24.4115 63.2408 23.3615 63.2408 21.6215C63.2408 19.8115 64.1108 18.8115 65.5008 18.8115C66.1108 18.8115 66.6108 19.0615 66.9508 19.5515V18.9515H68.0208V26.4815H66.9508V23.6315C66.6108 24.1315 66.1108 24.4115 65.5008 24.4115ZM65.6408 23.5115C66.4908 23.5115 66.9508 22.8515 66.9508 21.6215C66.9508 20.4015 66.4708 19.7115 65.6408 19.7115C64.7908 19.7115 64.3308 20.3915 64.3308 21.6215C64.3308 22.8315 64.8108 23.5115 65.6408 23.5115ZM72.6811 22.0715V18.9515H73.7411V24.2815H72.6811V23.5615C72.3311 24.1315 71.7711 24.4115 71.0911 24.4115C70.0011 24.4115 69.3211 23.7715 69.3211 22.5115V18.9515H70.3911V22.2915C70.3911 23.0615 70.7111 23.5215 71.4211 23.5215C72.2011 23.5215 72.6811 22.8115 72.6811 22.0715ZM75.0438 18.2915V17.0815H76.1138V18.2915H75.0438ZM75.0438 24.2815V18.9515H76.1138V24.2815H75.0438ZM77.5471 22.6915V19.7815H76.8271V18.9515H77.5471V17.7215H78.6171V18.9515H79.7671V19.7815H78.6171V22.6315C78.6171 23.2415 78.7871 23.5315 79.5371 23.5315H79.7471V24.3115C79.6271 24.3715 79.3771 24.4115 79.0771 24.4115C78.0371 24.4115 77.5471 23.8415 77.5471 22.6915ZM80.9511 26.6115C80.7211 26.6115 80.4811 26.5515 80.3611 26.5115V25.6915H80.6511C81.2611 25.6915 81.4911 25.5715 81.9511 24.4615L82.1111 24.0915L79.9711 18.9515H81.1211L82.4411 22.2715L82.6711 23.0015L82.9011 22.2715L84.1811 18.9515H85.2711L82.8511 24.9015C82.3111 26.2315 81.9011 26.6115 80.9511 26.6115ZM88.0144 24.2815V17.4815H89.1344V24.2815H88.0144ZM90.5125 24.2815V18.9515H91.5825V19.6615C91.9425 19.0915 92.5025 18.8115 93.1925 18.8115C94.3025 18.8115 94.9925 19.4615 94.9925 20.7215V24.2815H93.9325V20.9415C93.9325 20.1715 93.5925 19.7015 92.8625 19.7015C92.0625 19.7015 91.5825 20.4115 91.5825 21.1515V24.2815H90.5125ZM98.2938 24.4115C96.8838 24.4115 96.0338 23.3615 96.0338 21.6215C96.0338 19.8115 96.9038 18.8115 98.2938 18.8115C98.9038 18.8115 99.4038 19.0615 99.7438 19.5515V17.0815H100.814V24.2815H99.7438V23.6315C99.4038 24.1315 98.9038 24.4115 98.2938 24.4115ZM98.4338 23.5115C99.2838 23.5115 99.7438 22.8515 99.7438 21.6215C99.7438 20.4015 99.2638 19.7115 98.4338 19.7115C97.5838 19.7115 97.1238 20.3915 97.1238 21.6215C97.1238 22.8315 97.6038 23.5115 98.4338 23.5115ZM106.834 22.5415C106.544 23.7815 105.624 24.4115 104.374 24.4115C102.804 24.4115 101.844 23.3615 101.844 21.6215C101.844 19.8115 102.804 18.8115 104.324 18.8115C105.864 18.8115 106.794 19.8515 106.794 21.5615V21.8215H102.934C102.994 22.9115 103.504 23.5215 104.374 23.5215C105.054 23.5215 105.534 23.2015 105.714 22.5415H106.834ZM104.324 19.7015C103.554 19.7015 103.094 20.1915 102.964 21.0915H105.684C105.554 20.1915 105.084 19.7015 104.324 19.7015ZM111.04 24.2815L109.9 22.6415L109.64 22.1915L109.38 22.6415L108.27 24.2815H107.09L109.06 21.5115L107.24 18.9515H108.53L109.52 20.3915L109.78 20.8515L110.04 20.3915L111.01 18.9515H112.18L110.36 21.5115L112.33 24.2815H111.04ZM116.345 24.2815L114.385 18.9515H115.535L116.905 22.9115L117.035 23.4215L117.165 22.9115L118.525 18.9515H119.615L117.655 24.2815H116.345ZM121.138 20.3515C121.138 21.7115 124.548 20.5715 124.548 22.7415C124.548 23.7515 123.638 24.4115 122.348 24.4115C121.058 24.4115 120.148 23.8115 119.948 22.5415H121.018C121.128 23.2115 121.628 23.5815 122.378 23.5815C123.098 23.5815 123.478 23.2615 123.478 22.8115C123.478 21.4815 120.118 22.6015 120.118 20.4115C120.118 19.5815 120.768 18.8115 122.118 18.8115C123.308 18.8115 124.188 19.3615 124.358 20.6915H123.288C123.168 19.9415 122.748 19.6615 122.068 19.6615C121.478 19.6615 121.138 19.9515 121.138 20.3515ZM128.475 19.1615C128.475 20.9515 132.595 19.5415 132.595 22.3215C132.595 23.6615 131.505 24.4115 130.015 24.4115C128.505 24.4115 127.465 23.7215 127.185 22.3015H128.355C128.545 23.0715 129.115 23.4915 130.025 23.4915C130.955 23.4915 131.445 23.0815 131.445 22.4715C131.445 20.5515 127.325 21.9815 127.325 19.2515C127.325 18.2315 128.185 17.3515 129.735 17.3515C131.075 17.3515 132.175 17.9915 132.415 19.4815H131.225C131.035 18.6415 130.505 18.2715 129.705 18.2715C128.925 18.2715 128.475 18.6215 128.475 19.1615ZM137.928 18.8915C137.928 19.8815 137.218 20.2515 136.458 20.5715L138.098 22.1615C138.268 21.7615 138.368 21.2815 138.368 20.7315H139.418C139.418 21.5015 139.218 22.2515 138.838 22.8715L140.308 24.2815H138.898L138.208 23.6215C137.648 24.1115 136.908 24.4115 135.998 24.4115C134.458 24.4115 133.528 23.5415 133.528 22.3815C133.528 21.3115 134.168 20.7915 134.898 20.4315C134.418 19.8815 134.238 19.4815 134.238 18.9515C134.238 17.9915 135.028 17.3515 136.138 17.3515C137.318 17.3515 137.928 18.0915 137.928 18.8915ZM135.288 18.9515C135.288 19.3215 135.468 19.5915 135.878 20.0015C136.448 19.7515 136.898 19.4815 136.898 18.9615C136.898 18.5915 136.608 18.2315 136.128 18.2315C135.618 18.2315 135.288 18.5615 135.288 18.9515ZM134.618 22.3315C134.618 23.0115 135.118 23.5115 136.078 23.5115C136.638 23.5115 137.138 23.3315 137.528 22.9815L135.718 21.2715C135.628 21.1815 135.538 21.1015 135.458 21.0215C134.978 21.2915 134.618 21.6615 134.618 22.3315ZM141.178 24.2815V17.4815H143.598C145.188 17.4815 146.168 18.3115 146.168 19.6715C146.168 21.0615 145.168 21.8715 143.618 21.8715H142.298V24.2815H141.178ZM143.588 18.3815H142.298V20.9715H143.558C144.498 20.9715 145.018 20.4715 145.018 19.6815C145.018 18.8915 144.488 18.3815 143.588 18.3815ZM153.905 22.1315C153.905 23.4515 153.065 24.4115 151.485 24.4115C150.035 24.4115 149.145 23.6715 148.965 22.4415H150.035C150.145 23.1015 150.615 23.5115 151.475 23.5115C152.375 23.5115 152.835 23.0015 152.835 22.1515C152.835 21.4415 152.495 20.7415 151.465 20.7415C150.785 20.7415 150.395 21.0415 150.175 21.3715L149.215 21.2815L149.415 17.8515H153.595V18.6915H150.275L150.175 20.2815C150.535 20.0215 150.965 19.8515 151.555 19.8515C153.245 19.8515 153.905 20.9115 153.905 22.1315ZM157.157 24.4115C155.547 24.4115 154.617 23.1715 154.617 21.0715C154.617 18.9215 155.567 17.7215 157.157 17.7215C158.757 17.7215 159.687 18.9615 159.687 21.0715C159.687 23.2215 158.737 24.4115 157.157 24.4115ZM157.157 23.5015C158.087 23.5015 158.597 22.6415 158.597 21.0715C158.597 19.5115 158.077 18.6315 157.157 18.6315C156.227 18.6315 155.707 19.4915 155.707 21.0715C155.707 22.6115 156.227 23.5015 157.157 23.5015ZM162.918 24.4115C161.308 24.4115 160.378 23.1715 160.378 21.0715C160.378 18.9215 161.328 17.7215 162.918 17.7215C164.518 17.7215 165.448 18.9615 165.448 21.0715C165.448 23.2215 164.498 24.4115 162.918 24.4115ZM162.918 23.5015C163.848 23.5015 164.358 22.6415 164.358 21.0715C164.358 19.5115 163.838 18.6315 162.918 18.6315C161.988 18.6315 161.468 19.4915 161.468 21.0715C161.468 22.6115 161.988 23.5015 162.918 23.5015ZM168.493 24.2815V17.4815H169.613V24.2815H168.493ZM170.991 24.2815V18.9515H172.061V19.6615C172.421 19.0915 172.981 18.8115 173.671 18.8115C174.781 18.8115 175.471 19.4615 175.471 20.7215V24.2815H174.411V20.9415C174.411 20.1715 174.071 19.7015 173.341 19.7015C172.541 19.7015 172.061 20.4115 172.061 21.1515V24.2815H170.991ZM178.772 24.4115C177.362 24.4115 176.512 23.3615 176.512 21.6215C176.512 19.8115 177.382 18.8115 178.772 18.8115C179.382 18.8115 179.882 19.0615 180.222 19.5515V17.0815H181.292V24.2815H180.222V23.6315C179.882 24.1315 179.382 24.4115 178.772 24.4115ZM178.912 23.5115C179.762 23.5115 180.222 22.8515 180.222 21.6215C180.222 20.4015 179.742 19.7115 178.912 19.7115C178.062 19.7115 177.602 20.3915 177.602 21.6215C177.602 22.8315 178.082 23.5115 178.912 23.5115ZM187.313 22.5415C187.023 23.7815 186.103 24.4115 184.853 24.4115C183.283 24.4115 182.323 23.3615 182.323 21.6215C182.323 19.8115 183.283 18.8115 184.803 18.8115C186.343 18.8115 187.273 19.8515 187.273 21.5615V21.8215H183.413C183.473 22.9115 183.983 23.5215 184.853 23.5215C185.533 23.5215 186.013 23.2015 186.193 22.5415H187.313ZM184.803 19.7015C184.033 19.7015 183.573 20.1915 183.443 21.0915H186.163C186.033 20.1915 185.563 19.7015 184.803 19.7015ZM191.519 24.2815L190.379 22.6415L190.119 22.1915L189.859 22.6415L188.749 24.2815H187.569L189.539 21.5115L187.719 18.9515H189.009L189.999 20.3915L190.259 20.8515L190.519 20.3915L191.489 18.9515H192.659L190.839 21.5115L192.809 24.2815H191.519ZM195.453 22.0115V21.1015H198.143V22.0115H195.453ZM199.418 22.0115V21.1015H202.108V22.0115H199.418ZM205.446 24.2815V17.4815H206.566V20.3315H209.866V17.4815H210.986V24.2815H209.866V21.2415H206.566V24.2815H205.446ZM212.368 18.2915V17.0815H213.438V18.2915H212.368ZM212.368 24.2815V18.9515H213.438V24.2815H212.368ZM215.581 20.3515C215.581 21.7115 218.991 20.5715 218.991 22.7415C218.991 23.7515 218.081 24.4115 216.791 24.4115C215.501 24.4115 214.591 23.8115 214.391 22.5415H215.461C215.571 23.2115 216.071 23.5815 216.821 23.5815C217.541 23.5815 217.921 23.2615 217.921 22.8115C217.921 21.4815 214.561 22.6015 214.561 20.4115C214.561 19.5815 215.211 18.8115 216.561 18.8115C217.751 18.8115 218.631 19.3615 218.801 20.6915H217.731C217.611 19.9415 217.191 19.6615 216.511 19.6615C215.921 19.6615 215.581 19.9515 215.581 20.3515ZM220.106 22.6915V19.7815H219.386V18.9515H220.106V17.7215H221.176V18.9515H222.326V19.7815H221.176V22.6315C221.176 23.2415 221.346 23.5315 222.096 23.5315H222.306V24.3115C222.186 24.3715 221.936 24.4115 221.636 24.4115C220.596 24.4115 220.106 23.8415 220.106 22.6915ZM225.36 24.4115C223.81 24.4115 222.87 23.3615 222.87 21.6215C222.87 19.8115 223.84 18.8115 225.36 18.8115C226.91 18.8115 227.85 19.8815 227.85 21.6215C227.85 23.4215 226.88 24.4115 225.36 24.4115ZM225.36 23.5115C226.27 23.5115 226.76 22.8515 226.76 21.6215C226.76 20.4015 226.26 19.7115 225.36 19.7115C224.46 19.7115 223.96 20.3815 223.96 21.6215C223.96 22.8315 224.46 23.5115 225.36 23.5115ZM228.891 24.2815V18.9515H229.961V19.7415C230.311 19.1015 230.861 18.8115 231.481 18.8115C231.691 18.8115 231.891 18.8615 231.991 18.9515V19.8915C231.831 19.8415 231.641 19.8215 231.421 19.8215C230.401 19.8215 229.961 20.4415 229.961 21.3715V24.2815H228.891ZM232.72 18.2915V17.0815H233.79V18.2915H232.72ZM232.72 24.2815V18.9515H233.79V24.2815H232.72ZM239.593 20.8115H238.523C238.393 20.0515 237.903 19.7115 237.283 19.7115C236.393 19.7115 235.913 20.3915 235.913 21.6215C235.913 22.8315 236.413 23.5215 237.313 23.5215C237.953 23.5215 238.403 23.1715 238.563 22.4915H239.623C239.393 23.8215 238.473 24.4115 237.293 24.4115C235.753 24.4115 234.823 23.3515 234.823 21.6215C234.823 19.8115 235.773 18.8115 237.283 18.8115C238.473 18.8115 239.413 19.4815 239.593 20.8115ZM241.63 20.6915H240.56C240.73 19.5115 241.54 18.8115 242.87 18.8115C244.32 18.8115 245.04 19.6615 245.04 20.9015V22.9815C245.04 23.6215 245.1 23.9915 245.22 24.2815H244.1C244.02 24.0815 243.99 23.8015 243.98 23.5015C243.53 24.1315 242.84 24.4115 242.2 24.4115C241.12 24.4115 240.38 23.9015 240.38 22.8815C240.38 22.1515 240.78 21.6115 241.58 21.3415C242.29 21.1015 243.01 21.0415 243.97 21.0315V20.9115C243.97 20.1315 243.61 19.7115 242.79 19.7115C242.1 19.7115 241.73 20.0915 241.63 20.6915ZM241.46 22.8415C241.46 23.2915 241.83 23.5715 242.4 23.5715C243.29 23.5715 243.97 22.8615 243.97 22.0015V21.7615C241.92 21.7815 241.46 22.2315 241.46 22.8415ZM246.382 24.2815V17.0815H247.452V24.2815H246.382ZM250.788 24.2815V17.4815H253.208C254.798 17.4815 255.778 18.3115 255.778 19.6715C255.778 21.0615 254.778 21.8715 253.228 21.8715H251.908V24.2815H250.788ZM253.198 18.3815H251.908V20.9715H253.168C254.108 20.9715 254.628 20.4715 254.628 19.6815C254.628 18.8915 254.098 18.3815 253.198 18.3815ZM261.541 22.5415C261.251 23.7815 260.331 24.4115 259.081 24.4115C257.511 24.4115 256.551 23.3615 256.551 21.6215C256.551 19.8115 257.511 18.8115 259.031 18.8115C260.571 18.8115 261.501 19.8515 261.501 21.5615V21.8215H257.641C257.701 22.9115 258.211 23.5215 259.081 23.5215C259.761 23.5215 260.241 23.2015 260.421 22.5415H261.541ZM259.031 19.7015C258.261 19.7015 257.801 20.1915 257.671 21.0915H260.391C260.261 20.1915 259.791 19.7015 259.031 19.7015ZM262.573 24.2815V18.9515H263.643V19.7415C263.993 19.1015 264.543 18.8115 265.163 18.8115C265.373 18.8115 265.573 18.8615 265.673 18.9515V19.8915C265.513 19.8415 265.323 19.8215 265.103 19.8215C264.083 19.8215 263.643 20.4415 263.643 21.3715V24.2815H262.573ZM265.801 19.7815V18.9515H266.521V18.6715C266.521 17.5115 267.011 16.9515 268.011 16.9515C268.281 16.9515 268.491 17.0015 268.601 17.0515V17.7715H268.501C267.761 17.7715 267.581 18.0715 267.581 18.6815V18.9515H268.601V19.7815H267.581V24.2815H266.521V19.7815H265.801ZM271.493 24.4115C269.943 24.4115 269.003 23.3615 269.003 21.6215C269.003 19.8115 269.973 18.8115 271.493 18.8115C273.043 18.8115 273.983 19.8815 273.983 21.6215C273.983 23.4215 273.013 24.4115 271.493 24.4115ZM271.493 23.5115C272.403 23.5115 272.893 22.8515 272.893 21.6215C272.893 20.4015 272.393 19.7115 271.493 19.7115C270.593 19.7115 270.093 20.3815 270.093 21.6215C270.093 22.8315 270.593 23.5115 271.493 23.5115ZM275.024 24.2815V18.9515H276.094V19.7415C276.444 19.1015 276.994 18.8115 277.614 18.8115C277.824 18.8115 278.024 18.8615 278.124 18.9515V19.8915C277.964 19.8415 277.774 19.8215 277.554 19.8215C276.534 19.8215 276.094 20.4415 276.094 21.3715V24.2815H275.024ZM278.852 24.2815V18.9515H279.922V19.6315C280.262 19.0815 280.792 18.8115 281.422 18.8115C282.132 18.8115 282.662 19.1215 282.922 19.7315C283.272 19.1215 283.852 18.8115 284.552 18.8115C285.602 18.8115 286.282 19.4615 286.282 20.7215V24.2815H285.212V20.9415C285.212 20.1715 284.922 19.7015 284.262 19.7015C283.542 19.7015 283.102 20.4115 283.102 21.1515V24.2815H282.032V20.9415C282.032 20.1715 281.732 19.7015 281.082 19.7015C280.362 19.7015 279.922 20.4115 279.922 21.1515V24.2815H278.852ZM288.593 20.6915H287.523C287.693 19.5115 288.503 18.8115 289.833 18.8115C291.283 18.8115 292.003 19.6615 292.003 20.9015V22.9815C292.003 23.6215 292.063 23.9915 292.183 24.2815H291.063C290.983 24.0815 290.953 23.8015 290.943 23.5015C290.493 24.1315 289.803 24.4115 289.163 24.4115C288.083 24.4115 287.343 23.9015 287.343 22.8815C287.343 22.1515 287.743 21.6115 288.543 21.3415C289.253 21.1015 289.973 21.0415 290.933 21.0315V20.9115C290.933 20.1315 290.573 19.7115 289.753 19.7115C289.063 19.7115 288.693 20.0915 288.593 20.6915ZM288.423 22.8415C288.423 23.2915 288.793 23.5715 289.363 23.5715C290.253 23.5715 290.933 22.8615 290.933 22.0015V21.7615C288.883 21.7815 288.423 22.2315 288.423 22.8415ZM293.345 24.2815V18.9515H294.415V19.6615C294.775 19.0915 295.335 18.8115 296.025 18.8115C297.135 18.8115 297.825 19.4615 297.825 20.7215V24.2815H296.765V20.9415C296.765 20.1715 296.425 19.7015 295.695 19.7015C294.895 19.7015 294.415 20.4115 294.415 21.1515V24.2815H293.345ZM303.636 20.8115H302.566C302.436 20.0515 301.946 19.7115 301.326 19.7115C300.436 19.7115 299.956 20.3915 299.956 21.6215C299.956 22.8315 300.456 23.5215 301.356 23.5215C301.996 23.5215 302.446 23.1715 302.606 22.4915H303.666C303.436 23.8215 302.516 24.4115 301.336 24.4115C299.796 24.4115 298.866 23.3515 298.866 21.6215C298.866 19.8115 299.816 18.8115 301.326 18.8115C302.516 18.8115 303.456 19.4815 303.636 20.8115ZM309.393 22.5415C309.103 23.7815 308.183 24.4115 306.933 24.4115C305.363 24.4115 304.403 23.3615 304.403 21.6215C304.403 19.8115 305.363 18.8115 306.883 18.8115C308.423 18.8115 309.353 19.8515 309.353 21.5615V21.8215H305.493C305.553 22.9115 306.063 23.5215 306.933 23.5215C307.613 23.5215 308.093 23.2015 308.273 22.5415H309.393ZM306.883 19.7015C306.113 19.7015 305.653 20.1915 305.523 21.0915H308.243C308.113 20.1915 307.643 19.7015 306.883 19.7015Z" fill="white"/>
<path d="M53.0203 346.536V339.736H55.4403C57.0303 339.736 58.0103 340.566 58.0103 341.926C58.0103 343.316 57.0103 344.126 55.4603 344.126H54.1403V346.536H53.0203ZM55.4303 340.636H54.1403V343.226H55.4003C56.3403 343.226 56.8603 342.726 56.8603 341.936C56.8603 341.146 56.3303 340.636 55.4303 340.636ZM59.0438 346.536V341.206H60.1138V341.996C60.4638 341.356 61.0138 341.066 61.6338 341.066C61.8438 341.066 62.0438 341.116 62.1438 341.206V342.146C61.9838 342.096 61.7938 342.076 61.5738 342.076C60.5538 342.076 60.1138 342.696 60.1138 343.626V346.536H59.0438ZM62.8719 340.546V339.336H63.9419V340.546H62.8719ZM62.8719 346.536V341.206H63.9419V346.536H62.8719ZM66.5852 346.536L64.6252 341.206H65.7752L67.1452 345.166L67.2752 345.676L67.4052 345.166L68.7652 341.206H69.8552L67.8952 346.536H66.5852ZM71.5284 342.946H70.4584C70.6284 341.766 71.4384 341.066 72.7684 341.066C74.2184 341.066 74.9384 341.916 74.9384 343.156V345.236C74.9384 345.876 74.9984 346.246 75.1184 346.536H73.9984C73.9184 346.336 73.8884 346.056 73.8784 345.756C73.4284 346.386 72.7384 346.666 72.0984 346.666C71.0184 346.666 70.2784 346.156 70.2784 345.136C70.2784 344.406 70.6784 343.866 71.4784 343.596C72.1884 343.356 72.9084 343.296 73.8684 343.286V343.166C73.8684 342.386 73.5084 341.966 72.6884 341.966C71.9984 341.966 71.6284 342.346 71.5284 342.946ZM71.3584 345.096C71.3584 345.546 71.7284 345.826 72.2984 345.826C73.1884 345.826 73.8684 345.116 73.8684 344.256V344.016C71.8184 344.036 71.3584 344.486 71.3584 345.096ZM76.4201 344.946V342.036H75.7001V341.206H76.4201V339.976H77.4901V341.206H78.6401V342.036H77.4901V344.886C77.4901 345.496 77.6601 345.786 78.4101 345.786H78.6201V346.566C78.5001 346.626 78.2501 346.666 77.9501 346.666C76.9101 346.666 76.4201 346.096 76.4201 344.946ZM84.1742 344.796C83.8842 346.036 82.9642 346.666 81.7142 346.666C80.1442 346.666 79.1842 345.616 79.1842 343.876C79.1842 342.066 80.1442 341.066 81.6642 341.066C83.2042 341.066 84.1342 342.106 84.1342 343.816V344.076H80.2742C80.3342 345.166 80.8442 345.776 81.7142 345.776C82.3942 345.776 82.8742 345.456 83.0542 344.796H84.1742ZM81.6642 341.956C80.8942 341.956 80.4342 342.446 80.3042 343.346H83.0242C82.8942 342.446 82.4242 341.956 81.6642 341.956ZM87.2488 346.536V339.736H91.9388V340.636H88.3688V342.576H91.5588V343.466H88.3688V345.636H91.9388V346.536H87.2488ZM95.0086 346.666C93.5986 346.666 92.7486 345.616 92.7486 343.876C92.7486 342.066 93.6186 341.066 95.0086 341.066C95.6186 341.066 96.1186 341.316 96.4586 341.806V341.206H97.5286V348.736H96.4586V345.886C96.1186 346.386 95.6186 346.666 95.0086 346.666ZM95.1486 345.766C95.9986 345.766 96.4586 345.106 96.4586 343.876C96.4586 342.656 95.9786 341.966 95.1486 341.966C94.2986 341.966 93.8386 342.646 93.8386 343.876C93.8386 345.086 94.3186 345.766 95.1486 345.766ZM102.189 344.326V341.206H103.249V346.536H102.189V345.816C101.839 346.386 101.279 346.666 100.599 346.666C99.509 346.666 98.829 346.026 98.829 344.766V341.206H99.899V344.546C99.899 345.316 100.219 345.776 100.929 345.776C101.709 345.776 102.189 345.066 102.189 344.326ZM104.552 340.546V339.336H105.622V340.546H104.552ZM104.552 346.536V341.206H105.622V346.536H104.552ZM107.055 344.946V342.036H106.335V341.206H107.055V339.976H108.125V341.206H109.275V342.036H108.125V344.886C108.125 345.496 108.295 345.786 109.045 345.786H109.255V346.566C109.135 346.626 108.885 346.666 108.585 346.666C107.545 346.666 107.055 346.096 107.055 344.946ZM110.459 348.866C110.229 348.866 109.989 348.806 109.869 348.766V347.946H110.159C110.769 347.946 110.999 347.826 111.459 346.716L111.619 346.346L109.479 341.206H110.629L111.949 344.526L112.179 345.256L112.409 344.526L113.689 341.206H114.779L112.359 347.156C111.819 348.486 111.409 348.866 110.459 348.866ZM117.522 346.536V339.736H118.642V346.536H117.522ZM120.02 346.536V341.206H121.09V341.916C121.45 341.346 122.01 341.066 122.7 341.066C123.81 341.066 124.5 341.716 124.5 342.976V346.536H123.44V343.196C123.44 342.426 123.1 341.956 122.37 341.956C121.57 341.956 121.09 342.666 121.09 343.406V346.536H120.02ZM127.802 346.666C126.392 346.666 125.542 345.616 125.542 343.876C125.542 342.066 126.412 341.066 127.802 341.066C128.412 341.066 128.912 341.316 129.252 341.806V339.336H130.322V346.536H129.252V345.886C128.912 346.386 128.412 346.666 127.802 346.666ZM127.942 345.766C128.792 345.766 129.252 345.106 129.252 343.876C129.252 342.656 128.772 341.966 127.942 341.966C127.092 341.966 126.632 342.646 126.632 343.876C126.632 345.086 127.112 345.766 127.942 345.766ZM136.342 344.796C136.052 346.036 135.132 346.666 133.882 346.666C132.312 346.666 131.352 345.616 131.352 343.876C131.352 342.066 132.312 341.066 133.832 341.066C135.372 341.066 136.302 342.106 136.302 343.816V344.076H132.442C132.502 345.166 133.012 345.776 133.882 345.776C134.562 345.776 135.042 345.456 135.222 344.796H136.342ZM133.832 341.956C133.062 341.956 132.602 342.446 132.472 343.346H135.192C135.062 342.446 134.592 341.956 133.832 341.956ZM140.548 346.536L139.408 344.896L139.148 344.446L138.888 344.896L137.778 346.536H136.598L138.568 343.766L136.748 341.206H138.038L139.028 342.646L139.288 343.106L139.548 342.646L140.518 341.206H141.688L139.868 343.766L141.838 346.536H140.548Z" fill="white"/>
<path d="M8.62507 128.705C7.18507 128.705 6.23507 127.985 6.23507 126.825C6.23507 126.065 6.64507 125.525 7.32507 125.225C6.78507 124.945 6.46507 124.455 6.46507 123.805C6.46507 122.735 7.34507 122.035 8.62507 122.035C9.91507 122.035 10.7951 122.695 10.7951 123.805C10.7951 124.445 10.4651 124.945 9.91507 125.235C10.6051 125.535 11.0151 126.105 11.0151 126.815C11.0151 128.005 10.0551 128.705 8.62507 128.705ZM8.62507 122.775C7.85507 122.775 7.32507 123.175 7.32507 123.835C7.32507 124.535 7.84507 124.915 8.62507 124.915C9.39507 124.915 9.93507 124.515 9.93507 123.845C9.93507 123.155 9.41507 122.775 8.62507 122.775ZM8.62507 127.965C9.53507 127.965 10.1351 127.535 10.1351 126.775C10.1351 126.015 9.51507 125.575 8.62507 125.575C7.72507 125.575 7.11507 126.005 7.11507 126.785C7.11507 127.515 7.72507 127.965 8.62507 127.965ZM15.3368 128.585L14.0668 126.815L13.8068 126.405L13.5468 126.815L12.3068 128.585H11.3068L13.3268 125.825L11.4668 123.275H12.5668L13.6668 124.835L13.9368 125.265L14.1968 124.835L15.2768 123.275H16.2768L14.4168 125.825L16.4368 128.585H15.3368Z" fill="#F2F2F2" fill-opacity="0.5"/>
<path d="M11.16 165.309C11.16 166.679 10.16 167.499 8.79999 167.499C8.78999 167.499 8.78999 167.499 8.77999 167.499H8.76999C7.24999 167.489 6.20999 166.469 6.20999 164.169C6.20999 162.019 7.16999 160.829 8.78999 160.829C9.98999 160.829 10.83 161.519 11.14 162.759H10.24C10.01 161.989 9.47999 161.589 8.75999 161.589C7.63999 161.589 7.02999 162.499 7.02999 164.139C7.39999 163.509 8.06999 163.159 8.85999 163.159C10.23 163.159 11.16 163.959 11.16 165.309ZM8.77999 166.739C9.66999 166.739 10.26 166.239 10.26 165.339C10.26 164.449 9.64999 163.919 8.77999 163.919C7.87999 163.919 7.28999 164.439 7.28999 165.349C7.28999 166.219 7.88999 166.739 8.77999 166.739ZM15.3817 167.379L14.1117 165.609L13.8517 165.199L13.5917 165.609L12.3517 167.379H11.3517L13.3717 164.619L11.5117 162.069H12.6117L13.7117 163.629L13.9817 164.059L14.2417 163.629L15.3217 162.069H16.3217L14.4617 164.619L16.4817 167.379H15.3817Z" fill="#F2F2F2" fill-opacity="0.5"/>
<path d="M10.1651 207.379H9.26507V205.869H6.13507V205.069L9.35507 200.949H10.1651V205.169H11.1051V205.869H10.1651V207.379ZM6.96507 205.169H9.26507V202.139L6.96507 205.169ZM15.3368 207.379L14.0668 205.609L13.8068 205.199L13.5468 205.609L12.3068 207.379H11.3068L13.3268 204.619L11.4668 202.069H12.5668L13.6668 203.629L13.9368 204.059L14.1968 203.629L15.2768 202.069H16.2768L14.4168 204.619L16.4368 207.379H15.3368Z" fill="#F2F2F2" fill-opacity="0.5"/>
<path d="M6.35999 250.512V250.272C6.35999 247.382 9.91999 247.622 9.91999 245.892C9.91999 245.162 9.48999 244.722 8.68999 244.722C7.80999 244.722 7.37999 245.172 7.25999 245.912H6.34999C6.51999 244.702 7.32999 243.962 8.69999 243.962C10.1 243.962 10.82 244.792 10.82 245.882C10.82 247.962 7.63999 247.942 7.26999 249.812H10.89V250.512H6.35999ZM15.3817 250.512L14.1117 248.742L13.8517 248.332L13.5917 248.742L12.3517 250.512H11.3517L13.3717 247.752L11.5117 245.202H12.6117L13.7117 246.762L13.9817 247.192L14.2417 246.762L15.3217 245.202H16.3217L14.4617 247.752L16.4817 250.512H15.3817Z" fill="#F2F2F2" fill-opacity="0.5"/>
<path d="M36.1491 303.281V303.041C36.1491 300.151 39.7091 300.391 39.7091 298.661C39.7091 297.931 39.2791 297.491 38.4791 297.491C37.5991 297.491 37.1691 297.941 37.0491 298.681H36.1391C36.3091 297.471 37.1191 296.731 38.4891 296.731C39.8891 296.731 40.6091 297.561 40.6091 298.651C40.6091 300.731 37.4291 300.711 37.0591 302.581H40.6791V303.281H36.1491ZM43.9708 303.401C42.3808 303.401 41.4608 302.161 41.4608 300.071C41.4608 297.921 42.4008 296.731 43.9708 296.731C45.5508 296.731 46.4708 297.971 46.4708 300.071C46.4708 302.221 45.5308 303.401 43.9708 303.401ZM43.9708 302.641C45.0008 302.641 45.5708 301.721 45.5708 300.071C45.5708 298.431 44.9908 297.491 43.9708 297.491C42.9308 297.491 42.3608 298.401 42.3608 300.071C42.3608 301.691 42.9408 302.641 43.9708 302.641ZM49.5325 303.401C47.9425 303.401 47.0225 302.161 47.0225 300.071C47.0225 297.921 47.9625 296.731 49.5325 296.731C51.1125 296.731 52.0325 297.971 52.0325 300.071C52.0325 302.221 51.0925 303.401 49.5325 303.401ZM49.5325 302.641C50.5625 302.641 51.1325 301.721 51.1325 300.071C51.1325 298.431 50.5525 297.491 49.5325 297.491C48.4925 297.491 47.9225 298.401 47.9225 300.071C47.9225 301.691 48.5025 302.641 49.5325 302.641ZM53.5942 303.281V302.581H54.8242V298.081H53.5942V297.381H54.3242C54.8442 297.381 54.9742 297.261 54.9742 296.971V296.851H55.7442V302.581H56.9742V303.281H53.5942Z" fill="#F2F2F2" fill-opacity="0.5"/>
<path d="M107.252 297.771V298.821H106.172V298.131C106.172 297.421 106.332 297.001 106.602 296.481H107.112C106.932 296.961 106.812 297.291 106.812 297.771H107.252ZM110.528 303.401C108.938 303.401 108.018 302.161 108.018 300.071C108.018 297.921 108.958 296.731 110.528 296.731C112.108 296.731 113.028 297.971 113.028 300.071C113.028 302.221 112.088 303.401 110.528 303.401ZM110.528 302.641C111.558 302.641 112.128 301.721 112.128 300.071C112.128 298.431 111.548 297.491 110.528 297.491C109.488 297.491 108.918 298.401 108.918 300.071C108.918 301.691 109.498 302.641 110.528 302.641ZM117.679 303.281H116.779V301.771H113.649V300.971L116.869 296.851H117.679V301.071H118.619V301.771H117.679V303.281ZM114.479 301.071H116.779V298.041L114.479 301.071Z" fill="#F2F2F2" fill-opacity="0.5"/>
<path d="M168.295 297.771V298.821H167.215V298.131C167.215 297.421 167.375 297.001 167.645 296.481H168.155C167.975 296.961 167.855 297.291 167.855 297.771H168.295ZM171.57 303.401C169.98 303.401 169.06 302.161 169.06 300.071C169.06 297.921 170 296.731 171.57 296.731C173.15 296.731 174.07 297.971 174.07 300.071C174.07 302.221 173.13 303.401 171.57 303.401ZM171.57 302.641C172.6 302.641 173.17 301.721 173.17 300.071C173.17 298.431 172.59 297.491 171.57 297.491C170.53 297.491 169.96 298.401 169.96 300.071C169.96 301.691 170.54 302.641 171.57 302.641ZM176.932 303.281H176.012C176.352 301.151 177.182 299.241 178.412 297.551H174.822V296.851H179.362V297.411C178.012 299.261 177.202 301.231 176.932 303.281Z" fill="#F2F2F2" fill-opacity="0.5"/>
<path d="M229.338 297.771V298.821H228.258V298.131C228.258 297.421 228.418 297.001 228.688 296.481H229.198C229.018 296.961 228.898 297.291 228.898 297.771H229.338ZM231.113 303.281V302.581H232.343V298.081H231.113V297.381H231.843C232.363 297.381 232.493 297.261 232.493 296.971V296.851H233.263V302.581H234.493V303.281H231.113ZM238.175 303.401C236.585 303.401 235.665 302.161 235.665 300.071C235.665 297.921 236.605 296.731 238.175 296.731C239.755 296.731 240.675 297.971 240.675 300.071C240.675 302.221 239.735 303.401 238.175 303.401ZM238.175 302.641C239.205 302.641 239.775 301.721 239.775 300.071C239.775 298.431 239.195 297.491 238.175 297.491C237.135 297.491 236.565 298.401 236.565 300.071C236.565 301.691 237.145 302.641 238.175 302.641Z" fill="#F2F2F2" fill-opacity="0.5"/>
<path d="M290.381 297.771V298.821H289.301V298.131C289.301 297.421 289.461 297.001 289.731 296.481H290.241C290.061 296.961 289.941 297.291 289.941 297.771H290.381ZM292.156 303.281V302.581H293.386V298.081H292.156V297.381H292.886C293.406 297.381 293.536 297.261 293.536 296.971V296.851H294.306V302.581H295.536V303.281H292.156ZM301.658 301.491C301.658 302.581 300.838 303.401 299.248 303.401C297.818 303.401 296.928 302.661 296.748 301.431H297.648C297.768 302.171 298.268 302.641 299.238 302.641C300.238 302.641 300.758 302.201 300.758 301.451C300.758 300.901 300.468 300.311 298.958 300.311H298.698V299.611H298.908C300.338 299.611 300.568 299.021 300.568 298.571C300.568 297.891 300.118 297.491 299.258 297.491C298.358 297.491 297.898 297.941 297.778 298.681H296.888C297.058 297.471 297.888 296.731 299.268 296.731C300.718 296.731 301.468 297.511 301.468 298.561C301.468 299.161 301.208 299.631 300.538 299.911C301.368 300.221 301.658 300.801 301.658 301.491Z" fill="#F2F2F2" fill-opacity="0.5"/>
<path d="M351.424 297.771V298.821H350.344V298.131C350.344 297.421 350.504 297.001 350.774 296.481H351.284C351.104 296.961 350.984 297.291 350.984 297.771H351.424ZM353.199 303.281V302.581H354.429V298.081H353.199V297.381H353.929C354.449 297.381 354.579 297.261 354.579 296.971V296.851H355.349V302.581H356.579V303.281H353.199ZM362.801 301.211C362.801 302.581 361.801 303.401 360.441 303.401C360.431 303.401 360.431 303.401 360.421 303.401H360.411C358.891 303.391 357.851 302.371 357.851 300.071C357.851 297.921 358.811 296.731 360.431 296.731C361.631 296.731 362.471 297.421 362.781 298.661H361.881C361.651 297.891 361.121 297.491 360.401 297.491C359.281 297.491 358.671 298.401 358.671 300.041C359.041 299.411 359.711 299.061 360.501 299.061C361.871 299.061 362.801 299.861 362.801 301.211ZM360.421 302.641C361.311 302.641 361.901 302.141 361.901 301.241C361.901 300.351 361.291 299.821 360.421 299.821C359.521 299.821 358.931 300.341 358.931 301.251C358.931 302.121 359.531 302.641 360.421 302.641Z" fill="#F2F2F2" fill-opacity="0.5"/>
<path d="M412.467 297.771V298.821H411.387V298.131C411.387 297.421 411.547 297.001 411.817 296.481H412.327C412.147 296.961 412.027 297.291 412.027 297.771H412.467ZM414.242 303.281V302.581H415.472V298.081H414.242V297.381H414.972C415.492 297.381 415.622 297.261 415.622 296.971V296.851H416.392V302.581H417.622V303.281H414.242ZM418.884 298.891C418.884 297.531 419.844 296.731 421.214 296.731C421.224 296.731 421.224 296.731 421.234 296.731C422.784 296.741 423.744 297.771 423.744 300.041C423.744 302.221 422.764 303.401 421.194 303.401C420.024 303.401 419.164 302.741 418.864 301.521H419.764C419.974 302.271 420.514 302.641 421.224 302.641C422.314 302.641 422.904 301.761 422.904 300.151C422.554 300.761 421.924 301.111 421.184 301.111C419.814 301.111 418.884 300.301 418.884 298.891ZM421.244 297.491C420.364 297.491 419.784 297.991 419.784 298.891C419.784 299.811 420.364 300.351 421.244 300.351C422.114 300.351 422.694 299.821 422.694 298.891C422.694 298.011 422.114 297.491 421.244 297.491ZM424.586 297.541V296.481H425.666V297.171C425.666 297.891 425.516 298.321 425.236 298.821H424.726C424.916 298.351 425.026 298.021 425.026 297.541H424.586ZM426.681 303.281V303.041C426.681 300.151 430.241 300.391 430.241 298.661C430.241 297.931 429.811 297.491 429.011 297.491C428.131 297.491 427.701 297.941 427.581 298.681H426.671C426.841 297.471 427.651 296.731 429.021 296.731C430.421 296.731 431.141 297.561 431.141 298.651C431.141 300.731 427.961 300.711 427.591 302.581H431.211V303.281H426.681ZM434.503 303.401C432.913 303.401 431.993 302.161 431.993 300.071C431.993 297.921 432.933 296.731 434.503 296.731C436.083 296.731 437.003 297.971 437.003 300.071C437.003 302.221 436.063 303.401 434.503 303.401ZM434.503 302.641C435.533 302.641 436.103 301.721 436.103 300.071C436.103 298.431 435.523 297.491 434.503 297.491C433.463 297.491 432.893 298.401 432.893 300.071C432.893 301.691 433.473 302.641 434.503 302.641Z" fill="#F2F2F2" fill-opacity="0.5"/>
<path d="M15.12 287.401C13.53 287.401 12.61 286.161 12.61 284.071C12.61 281.921 13.55 280.731 15.12 280.731C16.7 280.731 17.62 281.971 17.62 284.071C17.62 286.221 16.68 287.401 15.12 287.401ZM15.12 286.641C16.15 286.641 16.72 285.721 16.72 284.071C16.72 282.431 16.14 281.491 15.12 281.491C14.08 281.491 13.51 282.401 13.51 284.071C13.51 285.691 14.09 286.641 15.12 286.641Z" fill="#F2F2F2" fill-opacity="0.5"/>
<rect x="37.4995" y="339.49" width="7.0459" height="7.0459" fill="#4375FB"/>
<path d="M191.693 341.416C191.693 343.206 195.813 341.796 195.813 344.576C195.813 345.916 194.723 346.666 193.233 346.666C191.723 346.666 190.683 345.976 190.403 344.556H191.573C191.763 345.326 192.333 345.746 193.243 345.746C194.173 345.746 194.663 345.336 194.663 344.726C194.663 342.806 190.543 344.236 190.543 341.506C190.543 340.486 191.403 339.606 192.953 339.606C194.293 339.606 195.393 340.246 195.633 341.736H194.443C194.253 340.896 193.723 340.526 192.923 340.526C192.143 340.526 191.693 340.876 191.693 341.416ZM201.147 341.146C201.147 342.136 200.437 342.506 199.677 342.826L201.317 344.416C201.487 344.016 201.587 343.536 201.587 342.986H202.637C202.637 343.756 202.437 344.506 202.057 345.126L203.527 346.536H202.117L201.427 345.876C200.867 346.366 200.127 346.666 199.217 346.666C197.677 346.666 196.747 345.796 196.747 344.636C196.747 343.566 197.387 343.046 198.117 342.686C197.637 342.136 197.457 341.736 197.457 341.206C197.457 340.246 198.247 339.606 199.357 339.606C200.537 339.606 201.147 340.346 201.147 341.146ZM198.507 341.206C198.507 341.576 198.687 341.846 199.097 342.256C199.667 342.006 200.117 341.736 200.117 341.216C200.117 340.846 199.827 340.486 199.347 340.486C198.837 340.486 198.507 340.816 198.507 341.206ZM197.837 344.586C197.837 345.266 198.337 345.766 199.297 345.766C199.857 345.766 200.357 345.586 200.747 345.236L198.937 343.526C198.847 343.436 198.757 343.356 198.677 343.276C198.197 343.546 197.837 343.916 197.837 344.586ZM204.397 346.536V339.736H206.817C208.407 339.736 209.387 340.566 209.387 341.926C209.387 343.316 208.387 344.126 206.837 344.126H205.517V346.536H204.397ZM206.807 340.636H205.517V343.226H206.777C207.717 343.226 208.237 342.726 208.237 341.936C208.237 341.146 207.707 340.636 206.807 340.636ZM217.123 344.386C217.123 345.706 216.283 346.666 214.703 346.666C213.253 346.666 212.363 345.926 212.183 344.696H213.253C213.363 345.356 213.833 345.766 214.693 345.766C215.593 345.766 216.053 345.256 216.053 344.406C216.053 343.696 215.713 342.996 214.683 342.996C214.003 342.996 213.613 343.296 213.393 343.626L212.433 343.536L212.633 340.106H216.813V340.946H213.493L213.393 342.536C213.753 342.276 214.183 342.106 214.773 342.106C216.463 342.106 217.123 343.166 217.123 344.386ZM220.375 346.666C218.765 346.666 217.835 345.426 217.835 343.326C217.835 341.176 218.785 339.976 220.375 339.976C221.975 339.976 222.905 341.216 222.905 343.326C222.905 345.476 221.955 346.666 220.375 346.666ZM220.375 345.756C221.305 345.756 221.815 344.896 221.815 343.326C221.815 341.766 221.295 340.886 220.375 340.886C219.445 340.886 218.925 341.746 218.925 343.326C218.925 344.866 219.445 345.756 220.375 345.756ZM226.137 346.666C224.527 346.666 223.597 345.426 223.597 343.326C223.597 341.176 224.547 339.976 226.137 339.976C227.737 339.976 228.667 341.216 228.667 343.326C228.667 345.476 227.717 346.666 226.137 346.666ZM226.137 345.756C227.067 345.756 227.577 344.896 227.577 343.326C227.577 341.766 227.057 340.886 226.137 340.886C225.207 340.886 224.687 341.746 224.687 343.326C224.687 344.866 225.207 345.756 226.137 345.756ZM231.711 346.536V339.736H232.831V346.536H231.711ZM234.209 346.536V341.206H235.279V341.916C235.639 341.346 236.199 341.066 236.889 341.066C237.999 341.066 238.689 341.716 238.689 342.976V346.536H237.629V343.196C237.629 342.426 237.289 341.956 236.559 341.956C235.759 341.956 235.279 342.666 235.279 343.406V346.536H234.209ZM241.991 346.666C240.581 346.666 239.731 345.616 239.731 343.876C239.731 342.066 240.601 341.066 241.991 341.066C242.601 341.066 243.101 341.316 243.441 341.806V339.336H244.511V346.536H243.441V345.886C243.101 346.386 242.601 346.666 241.991 346.666ZM242.131 345.766C242.981 345.766 243.441 345.106 243.441 343.876C243.441 342.656 242.961 341.966 242.131 341.966C241.281 341.966 240.821 342.646 240.821 343.876C240.821 345.086 241.301 345.766 242.131 345.766ZM250.531 344.796C250.241 346.036 249.321 346.666 248.071 346.666C246.501 346.666 245.541 345.616 245.541 343.876C245.541 342.066 246.501 341.066 248.021 341.066C249.561 341.066 250.491 342.106 250.491 343.816V344.076H246.631C246.691 345.166 247.201 345.776 248.071 345.776C248.751 345.776 249.231 345.456 249.411 344.796H250.531ZM248.021 341.956C247.251 341.956 246.791 342.446 246.661 343.346H249.381C249.251 342.446 248.781 341.956 248.021 341.956ZM254.737 346.536L253.597 344.896L253.337 344.446L253.077 344.896L251.967 346.536H250.787L252.757 343.766L250.937 341.206H252.227L253.217 342.646L253.477 343.106L253.737 342.646L254.707 341.206H255.877L254.057 343.766L256.027 346.536H254.737Z" fill="white"/>
<rect x="175.262" y="339.49" width="7.0459" height="7.0459" fill="#464EC7"/>
</svg>
