<svg width="333" height="142" viewBox="0 0 333 142" fill="none" xmlns="http://www.w3.org/2000/svg">
<path d="M40.5985 13.7273V14.1113C36.2465 14.1113 35.9905 16.5433 35.9905 21.2793V52.7673C35.9905 57.5033 36.2465 59.9353 40.5985 59.9353V60.3193H27.7985V59.9353C32.1505 59.9353 32.4065 57.5033 32.4065 52.7673V36.7673H10.3905V52.7673C10.3905 57.5033 10.6465 59.9353 14.9985 59.9353V60.3193H2.19846V59.9353C6.55046 59.9353 6.80646 57.5033 6.80646 52.7673V21.2793C6.80646 16.5433 6.55046 14.1113 2.19846 14.1113V13.7273H14.9985V14.1113C10.6465 14.1113 10.3905 16.5433 10.3905 21.2793V35.6153H32.4065V21.2793C32.4065 16.5433 32.1505 14.1113 27.7985 14.1113V13.7273H40.5985ZM57.31 61.0873C48.606 61.0873 42.206 54.4313 42.206 43.6793C42.206 33.0553 48.862 26.0153 57.438 26.0153C66.142 26.0153 72.542 32.6713 72.542 43.4233C72.542 54.0473 65.886 61.0873 57.31 61.0873ZM57.438 60.1913C64.67 60.1913 68.958 53.4713 68.958 43.5513C68.958 34.0153 64.542 26.9113 57.31 26.9113C50.078 26.9113 45.79 33.6313 45.79 43.5513C45.79 53.0873 50.206 60.1913 57.438 60.1913ZM109.86 27.1673V26.7833H118.436V27.1673C116.196 27.5513 114.788 29.4713 112.228 36.9593L103.972 60.8313H103.46L95.46 36.9593L86.5 60.8313H85.988L77.092 34.3993C75.3 29.0873 74.148 27.5513 71.972 27.1673V26.7833H81.7V27.1673C78.756 27.4233 78.756 29.2793 79.908 32.6713L87.524 55.2633L94.948 35.3593L94.628 34.3993C92.9 29.1513 91.684 27.5513 89.444 27.1673V26.7833H99.108V27.1673C96.1 27.4233 96.292 29.2793 97.444 32.6713L104.932 54.9433L111.14 36.5753C113.444 29.7913 113.188 27.4233 109.86 27.1673ZM151.087 55.1993L151.471 55.4553C148.527 59.1033 144.943 61.0873 141.871 61.0873C137.391 61.0873 134.831 58.3993 134.831 53.5353V28.8313H131.503V28.3193L132.399 27.9353C134.767 26.9113 136.495 24.4793 137.647 18.9753H138.031V26.7833H150.959L150.191 28.8313H138.031V52.7673C138.031 56.7353 139.823 58.9113 143.407 58.9113C146.223 58.9113 149.039 57.1193 151.087 55.1993ZM165.997 61.0873C157.293 61.0873 150.893 54.4313 150.893 43.6793C150.893 33.0553 157.549 26.0153 166.125 26.0153C174.829 26.0153 181.229 32.6713 181.229 43.4233C181.229 54.0473 174.573 61.0873 165.997 61.0873ZM166.125 60.1913C173.357 60.1913 177.645 53.4713 177.645 43.5513C177.645 34.0153 173.229 26.9113 165.997 26.9113C158.765 26.9113 154.477 33.6313 154.477 43.5513C154.477 53.0873 158.893 60.1913 166.125 60.1913ZM111.025 124.319H96.177L96.241 123.935C100.593 123.935 101.489 121.055 102.449 116.319L108.977 85.7273C109.937 80.9913 110.321 78.1113 105.969 78.1113L106.033 77.7273H120.881L120.817 78.1113C116.465 78.1113 115.569 80.9913 114.609 85.7273L108.081 116.319C107.121 121.055 106.737 123.935 111.089 123.935L111.025 124.319ZM148.453 115.039L148.773 115.295C145.573 121.439 141.989 125.087 138.981 125.087C135.909 125.087 135.717 122.143 136.613 118.303L140.389 101.791C141.349 97.6313 142.053 93.7913 139.045 93.7913C133.541 93.7913 125.093 108.063 121.573 124.319H116.453L122.149 97.3753C122.469 95.8393 122.853 94.1113 121.765 94.1113C120.869 94.1113 119.205 95.7753 116.901 98.7833L116.581 98.5273C119.397 93.0233 122.661 90.0153 125.285 90.0153C128.229 90.0153 128.229 93.0233 127.461 96.7993L124.133 112.095C128.805 99.2953 135.653 90.0153 142.181 90.0153C147.493 90.0153 147.109 95.6473 145.573 102.303L141.989 117.727C141.669 119.263 141.221 120.991 142.309 120.991C143.205 120.991 145.317 119.263 148.453 115.039ZM157.298 125.087C151.986 125.087 151.41 119.519 152.882 112.799L156.21 97.3753C156.466 96.0313 156.914 94.1113 155.89 94.1113C154.93 94.1113 153.202 95.8393 150.834 98.9113L150.514 98.6553C153.522 92.9593 156.722 90.0153 159.41 90.0153C162.674 90.0153 162.162 94.2393 161.586 96.7993L158.002 113.311C157.042 117.983 157.426 121.695 160.818 121.695C167.602 121.695 173.682 107.807 173.682 99.2953C173.682 96.0313 172.786 92.5753 170.738 91.1673V90.7833L175.346 90.0153C177.138 91.4233 177.906 93.7273 177.906 96.3513C177.906 106.271 166.194 125.087 157.298 125.087ZM205.566 94.9433C205.566 100.767 197.438 104.159 184.702 107.999C184.318 109.727 184.126 111.583 184.126 113.375C184.126 119.327 186.238 121.951 189.822 121.951C193.726 121.951 197.95 118.943 201.662 114.463L202.046 114.719C197.374 121.951 192.446 125.151 187.454 125.151C182.334 125.151 178.686 121.759 178.686 114.591C178.686 104.415 185.918 90.0153 198.59 90.0153C203.39 90.0153 205.566 91.9993 205.566 94.9433ZM197.566 90.9753C192.574 90.9753 187.006 98.3993 184.958 106.911C195.454 103.199 200.766 99.9993 200.766 94.6873C200.766 92.6393 199.998 90.9753 197.566 90.9753ZM212.033 125.087C208.257 125.087 204.737 123.615 203.009 121.695L204.673 116.639H205.057C206.145 120.607 209.729 123.871 213.825 123.871C217.409 123.871 219.905 120.991 219.905 117.471C219.905 114.207 217.665 112.351 214.593 109.791L212.801 108.319C210.497 106.463 208.321 104.543 208.321 100.191C208.321 94.5593 212.673 90.0153 218.753 90.0153C222.145 90.0153 225.089 91.4873 226.945 92.6393L225.729 97.5033H225.345C224.193 94.3673 221.313 91.2313 217.473 91.2313C214.081 91.2313 212.033 94.3033 212.033 97.1833C212.033 100.319 214.017 102.111 216.129 103.903L217.921 105.375C221.377 108.191 223.681 110.239 223.681 114.591C223.681 120.607 218.753 125.087 212.033 125.087ZM249.006 93.0873H239.086L234.158 116.447C233.71 118.751 233.582 121.183 235.438 121.183C237.294 121.183 240.686 118.559 244.846 112.991L245.166 113.247C241.454 120.159 236.206 125.087 232.11 125.087C228.718 125.087 227.886 121.631 228.846 116.959L233.966 93.0873H230.574L230.766 92.4473L231.726 92.0633C234.862 90.7193 237.806 88.3513 241.006 82.3993H241.39L239.662 90.7833H250.414L249.006 93.0873Z" fill="#191819"/>
<path d="M332.726 106.395L317.726 97.7343V115.055L332.726 106.395ZM274.832 107.895H319.226V104.895H274.832V107.895Z" fill="#121212"/>
</svg>
