<svg width="563" height="288" viewBox="0 0 563 288" fill="none" xmlns="http://www.w3.org/2000/svg">
<path d="M56.5425 77.0421L61.9185 116.21C62.6865 121.586 63.3905 123.762 66.0785 124.018L66.0145 124.402H51.4225L51.4865 124.018C55.2625 123.762 56.9905 121.906 56.4145 117.682L55.1345 108.082H40.0305L37.5985 112.434C33.3745 119.986 32.0305 123.57 36.8305 124.018L36.7665 124.402H26.2065L26.2705 124.018C29.3425 123.506 31.9025 119.794 36.3185 112.114L56.0305 77.0421H56.5425ZM52.2545 86.1941L40.8625 106.546H54.9425L52.2545 86.1941ZM72.4 125.17C69.008 125.17 69.456 121.266 70.096 118.386L77.712 82.5461C78.608 78.5141 77.84 77.0421 75.792 76.5301L75.856 76.1461L84.368 74.3541H84.624L75.408 117.81C75.216 118.642 74.704 120.818 75.856 120.818C77.072 120.818 79.76 118.066 82 115.058L82.32 115.314C79.12 121.33 75.6 125.17 72.4 125.17ZM105.025 93.1701H95.1055L90.1775 116.53C89.7295 118.834 89.6015 121.266 91.4575 121.266C93.3135 121.266 96.7055 118.642 100.865 113.074L101.185 113.33C97.4735 120.242 92.2255 125.17 88.1295 125.17C84.7375 125.17 83.9055 121.714 84.8655 117.042L89.9855 93.1701H86.5935L86.7855 92.5301L87.7455 92.1461C90.8815 90.8021 93.8255 88.4341 97.0255 82.4821H97.4095L95.6815 90.8661H106.433L105.025 93.1701ZM129.336 95.0261C129.336 100.85 121.208 104.242 108.472 108.082C108.088 109.81 107.896 111.666 107.896 113.458C107.896 119.41 110.008 122.034 113.592 122.034C117.496 122.034 121.72 119.026 125.432 114.546L125.816 114.802C121.144 122.034 116.216 125.234 111.224 125.234C106.104 125.234 102.456 121.842 102.456 114.674C102.456 104.498 109.688 90.0981 122.36 90.0981C127.16 90.0981 129.336 92.0821 129.336 95.0261ZM121.336 91.0581C116.344 91.0581 110.776 98.4821 108.728 106.994C119.224 103.282 124.536 100.082 124.536 94.7701C124.536 92.7221 123.768 91.0581 121.336 91.0581ZM151.866 90.0981C152.762 90.0981 153.658 90.1621 154.554 90.6101L152.122 96.1141H151.738C150.97 95.7301 150.33 95.6021 149.562 95.6021C142.97 95.6021 137.914 110.066 134.842 124.402H129.722L135.418 97.4581C135.738 95.8581 136.122 94.1941 135.034 94.1941C134.138 94.1941 132.474 95.8581 130.17 98.8661L129.85 98.6101C132.666 93.1061 135.93 90.0981 138.554 90.0981C141.498 90.0981 141.498 93.1061 140.73 96.8821L138.042 109.234C141.434 98.7381 146.17 90.0981 151.866 90.0981ZM184.722 115.122L185.042 115.378C181.842 121.522 178.258 125.17 175.25 125.17C172.178 125.17 171.986 122.226 172.882 118.386L176.658 101.874C177.618 97.7141 178.322 93.8741 175.314 93.8741C169.81 93.8741 161.362 108.146 157.842 124.402H152.722L158.418 97.4581C158.738 95.9221 159.122 94.1941 158.034 94.1941C157.138 94.1941 155.474 95.8581 153.17 98.8661L152.85 98.6101C155.666 93.1061 158.93 90.0981 161.554 90.0981C164.498 90.0981 164.498 93.1061 163.73 96.8821L160.402 112.178C165.074 99.3781 171.922 90.0981 178.45 90.0981C183.762 90.0981 183.378 95.7301 181.842 102.386L178.258 117.81C177.938 119.346 177.49 121.074 178.578 121.074C179.474 121.074 181.586 119.346 184.722 115.122ZM217.375 115.122L217.695 115.378C214.495 121.522 210.975 125.17 207.903 125.17C204.639 125.17 204.959 121.266 205.599 118.386L207.199 110.962C203.487 120.114 197.727 125.17 192.543 125.17C188.383 125.17 185.951 121.842 185.951 115.698C185.951 104.178 194.527 90.0981 206.367 90.0981C209.311 90.0981 211.615 90.9301 212.959 92.7221L216.415 90.4821H216.735L210.975 117.81C210.783 118.642 210.271 120.818 211.359 120.818C212.575 120.818 215.071 118.258 217.375 115.122ZM195.487 122.034C200.159 122.034 206.879 112.754 209.311 100.85C209.503 99.7621 209.631 98.7381 209.631 97.3941C209.631 93.8101 208.671 90.9941 205.343 90.9941C198.239 90.9941 191.391 104.178 191.391 114.61C191.391 119.41 192.927 122.034 195.487 122.034ZM240.463 93.1701H230.543L225.615 116.53C225.167 118.834 225.039 121.266 226.895 121.266C228.751 121.266 232.143 118.642 236.303 113.074L236.623 113.33C232.911 120.242 227.663 125.17 223.567 125.17C220.175 125.17 219.343 121.714 220.303 117.042L225.423 93.1701H222.031L222.223 92.5301L223.183 92.1461C226.319 90.8021 229.263 88.4341 232.463 82.4821H232.847L231.119 90.8661H241.871L240.463 93.1701ZM249.98 84.7861C247.932 84.7861 246.332 83.1861 246.332 81.2021C246.332 79.2181 247.932 77.6181 249.98 77.6181C251.964 77.6181 253.564 79.2181 253.564 81.2021C253.564 83.1861 251.964 84.7861 249.98 84.7861ZM242.492 125.17C239.228 125.17 239.548 121.266 240.188 118.386L244.668 97.4581C244.988 95.9221 245.372 94.1941 244.284 94.1941C243.388 94.1941 241.724 95.8581 239.42 98.8661L239.1 98.6101C241.916 93.1061 245.18 90.0981 247.804 90.0981C250.748 90.0981 250.748 93.1061 249.98 96.8821L245.564 117.81C245.372 118.706 244.86 120.818 245.948 120.818C247.164 120.818 249.66 118.258 252.028 115.122L252.348 115.378C249.084 121.522 245.564 125.17 242.492 125.17ZM260.942 125.17C255.63 125.17 255.054 119.602 256.526 112.882L259.854 97.4581C260.11 96.1141 260.558 94.1941 259.534 94.1941C258.574 94.1941 256.846 95.9221 254.478 98.9941L254.158 98.7381C257.166 93.0421 260.366 90.0981 263.054 90.0981C266.318 90.0981 265.806 94.3221 265.23 96.8821L261.646 113.394C260.686 118.066 261.07 121.778 264.462 121.778C271.246 121.778 277.326 107.89 277.326 99.3781C277.326 96.1141 276.43 92.6581 274.382 91.2501V90.8661L278.99 90.0981C280.782 91.5061 281.55 93.8101 281.55 96.4341C281.55 106.354 269.838 125.17 260.942 125.17ZM309.211 95.0261C309.211 100.85 301.083 104.242 288.347 108.082C287.963 109.81 287.771 111.666 287.771 113.458C287.771 119.41 289.883 122.034 293.467 122.034C297.371 122.034 301.595 119.026 305.307 114.546L305.691 114.802C301.019 122.034 296.091 125.234 291.099 125.234C285.979 125.234 282.331 121.842 282.331 114.674C282.331 104.498 289.563 90.0981 302.235 90.0981C307.035 90.0981 309.211 92.0821 309.211 95.0261ZM301.211 91.0581C296.219 91.0581 290.651 98.4821 288.603 106.994C299.099 103.282 304.411 100.082 304.411 94.7701C304.411 92.7221 303.643 91.0581 301.211 91.0581Z" fill="white"/>
<path d="M158.356 184.402H145.556V184.018C149.908 184.018 150.164 181.586 150.164 176.85V145.362C150.164 140.626 149.908 138.194 145.556 138.194V137.81H158.356V138.194C154.004 138.194 153.748 140.626 153.748 145.362V176.85C153.748 181.586 154.004 184.018 158.356 184.018V184.402ZM186.851 160.082V177.746C186.851 181.842 187.043 184.018 189.667 184.018V184.402H180.835V184.018C183.459 184.018 183.651 181.842 183.651 177.746V160.85C183.651 155.474 181.475 152.658 177.123 152.658C173.603 152.658 170.211 154.514 167.075 157.202V177.746C167.075 181.842 167.267 184.018 169.891 184.018V184.402H161.059V184.018C163.683 184.018 163.875 181.842 163.875 177.746V158.802C163.875 154.706 162.787 153.17 160.611 152.786V152.402L166.819 150.226H167.075V156.562C170.531 152.914 174.563 150.098 178.851 150.098C183.715 150.098 186.851 153.554 186.851 160.082ZM210.399 151.25V150.866H218.975V151.25C216.735 151.634 215.519 153.554 212.703 161.234L203.999 184.914H203.487L193.823 158.482C191.903 153.234 190.879 151.634 188.703 151.25V150.866H198.431V151.25C195.487 151.506 195.423 153.426 196.639 156.754L204.895 179.41L211.615 160.85C214.239 153.554 213.727 151.506 210.399 151.25ZM243.407 176.85L243.791 177.106C241.743 180.562 237.839 185.17 231.311 185.17C223.311 185.17 218.063 177.874 218.063 168.082C218.063 157.394 224.975 150.098 232.655 150.098C238.735 150.098 244.047 154.578 243.727 162.514H221.903C221.647 163.858 221.519 165.202 221.519 166.61C221.519 175.25 225.487 182.738 232.783 182.738C237.647 182.738 241.359 179.858 243.407 176.85ZM232.271 150.994C227.215 150.994 223.503 155.602 222.095 161.49H239.503C239.951 155.154 237.519 150.994 232.271 150.994ZM255.846 185.17C252.326 185.17 248.934 184.21 246.694 182.994L246.182 175.762H246.566C248.742 181.586 251.75 184.274 256.358 184.274C260.454 184.274 264.23 182.098 264.23 177.49C264.23 173.394 261.606 171.922 256.422 169.106L254.054 167.826C250.278 165.778 247.142 163.73 247.142 158.866C247.142 153.49 251.238 150.098 256.998 150.098C259.622 150.098 262.886 150.738 265.254 152.146V158.098H264.87C263.526 153.298 260.198 150.994 256.614 150.994C252.518 150.994 249.638 153.554 249.638 157.394C249.638 161.106 252.39 162.962 255.782 164.754L258.15 166.034C263.014 168.658 266.726 170.45 266.726 175.826C266.726 181.458 262.246 185.17 255.846 185.17ZM288.507 179.282L288.891 179.538C285.947 183.186 282.363 185.17 279.291 185.17C274.811 185.17 272.251 182.482 272.251 177.618V152.914H268.923V152.402L269.819 152.018C272.187 150.994 273.915 148.562 275.067 143.058H275.451V150.866H288.379L287.611 152.914H275.451V176.85C275.451 180.818 277.243 182.994 280.827 182.994C283.643 182.994 286.459 181.202 288.507 179.282ZM333.278 160.082V177.746C333.278 181.842 333.47 184.018 336.094 184.018V184.402H327.262V184.018C329.886 184.018 330.078 181.842 330.078 177.746V160.85C330.078 155.474 327.902 152.786 323.55 152.786C320.03 152.786 317.214 154.578 314.078 157.266C314.206 158.162 314.27 159.058 314.27 160.082V177.746C314.27 181.842 314.462 184.018 317.086 184.018V184.402H308.254V184.018C310.878 184.018 311.07 181.842 311.07 177.746V160.85C311.07 155.474 308.894 152.786 304.542 152.786C301.022 152.786 298.334 154.514 295.262 157.202V177.746C295.262 181.842 295.454 184.018 298.078 184.018V184.402H289.246V184.018C291.87 184.018 292.062 181.842 292.062 177.746V158.802C292.062 154.706 290.974 153.17 288.798 152.786V152.402L295.006 150.226H295.262V156.562C298.59 152.914 301.982 150.098 306.27 150.098C310.174 150.098 312.99 152.338 313.95 156.69C317.342 152.914 320.926 150.098 325.278 150.098C330.142 150.098 333.278 153.554 333.278 160.082ZM363.97 176.85L364.354 177.106C362.306 180.562 358.402 185.17 351.874 185.17C343.874 185.17 338.626 177.874 338.626 168.082C338.626 157.394 345.538 150.098 353.218 150.098C359.298 150.098 364.61 154.578 364.29 162.514H342.466C342.21 163.858 342.082 165.202 342.082 166.61C342.082 175.25 346.05 182.738 353.346 182.738C358.21 182.738 361.922 179.858 363.97 176.85ZM352.834 150.994C347.778 150.994 344.066 155.602 342.658 161.49H360.066C360.514 155.154 358.082 150.994 352.834 150.994ZM392.601 160.082V177.746C392.601 181.842 392.793 184.018 395.417 184.018V184.402H386.585V184.018C389.209 184.018 389.401 181.842 389.401 177.746V160.85C389.401 155.474 387.225 152.658 382.873 152.658C379.353 152.658 375.961 154.514 372.825 157.202V177.746C372.825 181.842 373.017 184.018 375.641 184.018V184.402H366.809V184.018C369.433 184.018 369.625 181.842 369.625 177.746V158.802C369.625 154.706 368.537 153.17 366.361 152.786V152.402L372.569 150.226H372.825V156.562C376.281 152.914 380.313 150.098 384.601 150.098C389.465 150.098 392.601 153.554 392.601 160.082ZM416.945 179.282L417.329 179.538C414.385 183.186 410.801 185.17 407.729 185.17C403.249 185.17 400.689 182.482 400.689 177.618V152.914H397.361V152.402L398.257 152.018C400.625 150.994 402.353 148.562 403.505 143.058H403.889V150.866H416.817L416.049 152.914H403.889V176.85C403.889 180.818 405.681 182.994 409.265 182.994C412.081 182.994 414.897 181.202 416.945 179.282ZM427.284 185.17C423.764 185.17 420.372 184.21 418.132 182.994L417.62 175.762H418.004C420.18 181.586 423.188 184.274 427.796 184.274C431.892 184.274 435.668 182.098 435.668 177.49C435.668 173.394 433.044 171.922 427.86 169.106L425.492 167.826C421.716 165.778 418.58 163.73 418.58 158.866C418.58 153.49 422.676 150.098 428.436 150.098C431.06 150.098 434.324 150.738 436.692 152.146V158.098H436.308C434.964 153.298 431.636 150.994 428.052 150.994C423.956 150.994 421.076 153.554 421.076 157.394C421.076 161.106 423.828 162.962 427.22 164.754L429.588 166.034C434.452 168.658 438.164 170.45 438.164 175.826C438.164 181.458 433.684 185.17 427.284 185.17Z" fill="white"/>
<path d="M20.9773 13.3337L34.3533 52.2457C36.2733 57.7497 37.4253 59.7977 40.1773 60.0537V60.4377H27.8893V60.0537C31.4733 59.7977 32.5613 58.0697 31.0253 53.5897L27.5693 43.4777H11.4413L9.52127 49.0457C6.96127 56.5977 6.19327 59.7977 11.1853 60.0537V60.4377H0.881273V60.0537C3.95327 59.7977 5.61727 56.4057 8.30527 48.6617L20.4653 13.3337H20.9773ZM19.4413 19.8617L11.9533 41.9417H26.9933L19.4413 19.8617ZM52.8158 61.2057C44.8158 61.2057 39.5678 53.9097 39.5678 44.1177C39.5678 33.4297 46.4798 26.1337 54.1598 26.1337C58.5758 26.1337 62.7358 28.4377 64.7838 31.7017L62.7998 34.7097H62.4158C61.0078 29.9737 58.5118 27.0297 54.1598 27.0297C47.3118 27.0297 43.0238 34.5177 43.0238 42.6457C43.0238 51.2857 46.9918 58.7737 54.2878 58.7737C59.1518 58.7737 62.8638 55.8937 64.9118 52.8857L65.2958 53.1417C63.2478 56.5977 59.3438 61.2057 52.8158 61.2057ZM80.1908 61.2057C72.1908 61.2057 66.9428 53.9097 66.9428 44.1177C66.9428 33.4297 73.8548 26.1337 81.5348 26.1337C85.9508 26.1337 90.1108 28.4377 92.1588 31.7017L90.1748 34.7097H89.7908C88.3828 29.9737 85.8868 27.0297 81.5348 27.0297C74.6868 27.0297 70.3988 34.5177 70.3988 42.6457C70.3988 51.2857 74.3668 58.7737 81.6628 58.7737C86.5268 58.7737 90.2388 55.8937 92.2868 52.8857L92.6708 53.1417C90.6228 56.5977 86.7188 61.2057 80.1908 61.2057ZM119.662 52.8857L120.046 53.1417C117.998 56.5977 114.094 61.2057 107.566 61.2057C99.5658 61.2057 94.3178 53.9097 94.3178 44.1177C94.3178 33.4297 101.23 26.1337 108.91 26.1337C114.99 26.1337 120.302 30.6137 119.982 38.5497H98.1578C97.9018 39.8937 97.7738 41.2377 97.7738 42.6457C97.7738 51.2857 101.742 58.7737 109.038 58.7737C113.902 58.7737 117.614 55.8937 119.662 52.8857ZM108.526 27.0297C103.47 27.0297 99.7578 31.6377 98.3498 37.5257H115.758C116.206 31.1897 113.774 27.0297 108.526 27.0297ZM132.101 61.2057C128.581 61.2057 125.189 60.2457 122.949 59.0297L122.437 51.7977H122.821C124.997 57.6217 128.005 60.3097 132.613 60.3097C136.709 60.3097 140.485 58.1337 140.485 53.5257C140.485 49.4297 137.861 47.9577 132.677 45.1417L130.309 43.8617C126.533 41.8137 123.397 39.7657 123.397 34.9017C123.397 29.5257 127.493 26.1337 133.253 26.1337C135.877 26.1337 139.141 26.7737 141.509 28.1817V34.1337H141.125C139.781 29.3337 136.453 27.0297 132.869 27.0297C128.773 27.0297 125.893 29.5897 125.893 33.4297C125.893 37.1417 128.645 38.9977 132.037 40.7897L134.405 42.0697C139.269 44.6937 142.981 46.4857 142.981 51.8617C142.981 57.4937 138.501 61.2057 132.101 61.2057ZM155.226 61.2057C151.706 61.2057 148.314 60.2457 146.074 59.0297L145.562 51.7977H145.946C148.122 57.6217 151.13 60.3097 155.738 60.3097C159.834 60.3097 163.61 58.1337 163.61 53.5257C163.61 49.4297 160.986 47.9577 155.802 45.1417L153.434 43.8617C149.658 41.8137 146.522 39.7657 146.522 34.9017C146.522 29.5257 150.618 26.1337 156.378 26.1337C159.002 26.1337 162.266 26.7737 164.634 28.1817V34.1337H164.25C162.906 29.3337 159.578 27.0297 155.994 27.0297C151.898 27.0297 149.018 29.5897 149.018 33.4297C149.018 37.1417 151.77 38.9977 155.162 40.7897L157.53 42.0697C162.394 44.6937 166.106 46.4857 166.106 51.8617C166.106 57.4937 161.626 61.2057 155.226 61.2057Z" fill="white"/>
</svg>
