<svg width="409" height="168" viewBox="0 0 409 168" fill="none" xmlns="http://www.w3.org/2000/svg">
<path d="M73.5523 0.974615V0.398617H89.0083V0.974615C84.4003 1.35862 82.0003 6.35062 78.3523 18.1586L61.9363 71.0546H61.1683L45.8083 24.2066L28.7203 71.0546H27.9523L9.42428 12.6866C6.83228 4.62262 4.81628 1.35862 0.688279 0.974615V0.398617H20.0803V0.974615C13.5523 1.35862 12.3043 3.95062 14.2243 10.0946L30.4483 61.1666L44.9443 21.4226L42.0643 12.6866C39.3763 4.43062 37.7443 1.35862 32.9443 0.974615V0.398617H52.3363V0.974615C46.0003 1.35862 44.8483 3.95062 46.8643 10.0946L63.3763 60.4946L76.5283 17.5826C80.0803 5.96662 81.2323 1.35862 73.5523 0.974615ZM142.438 0.398617V0.974615C135.91 0.974615 135.526 4.62262 135.526 11.7266V58.9586C135.526 66.0626 135.91 69.7106 142.438 69.7106V70.2866H123.238V69.7106C129.766 69.7106 130.15 66.0626 130.15 58.9586V34.9586H97.1255V58.9586C97.1255 66.0626 97.5095 69.7106 104.038 69.7106V70.2866H84.8375V69.7106C91.3655 69.7106 91.7495 66.0626 91.7495 58.9586V11.7266C91.7495 4.62262 91.3655 0.974615 84.8375 0.974615V0.398617H104.038V0.974615C97.5095 0.974615 97.1255 4.62262 97.1255 11.7266V33.2306H130.15V11.7266C130.15 4.62262 129.766 0.974615 123.238 0.974615V0.398617H142.438ZM179.268 0.974615V0.398617H194.724V0.974615C189.156 1.35862 184.644 8.55862 179.172 18.5426L168.9 37.4546V58.9586C168.9 66.0626 169.284 69.7106 175.812 69.7106V70.2866H156.612V69.7106C163.14 69.7106 163.524 66.0626 163.524 58.9586V38.3186L149.508 12.6866C144.516 3.47062 142.788 1.55062 139.716 0.974615V0.398617H157.572V0.974615C151.428 1.35862 151.044 4.43062 154.116 10.0946L167.94 35.4386L177.444 17.9666C183.876 6.06262 185.412 1.93462 179.268 0.974615ZM119.694 166.287H100.494V165.711C107.022 165.711 107.406 162.063 107.406 154.959V107.727C107.406 100.623 107.022 96.9746 100.494 96.9746V96.3986H119.694V96.9746C113.166 96.9746 112.782 100.623 112.782 107.727V154.959C112.782 162.063 113.166 165.711 119.694 165.711V166.287ZM159.364 96.9746V96.3986H177.028V96.9746C170.692 96.9746 169.732 102.735 169.732 112.719V167.055H169.156L128.068 102.351V152.175C128.068 160.143 129.028 165.711 136.228 165.711V166.287H117.892V165.711C124.804 165.711 126.34 160.143 126.34 152.175V106.767C126.34 100.527 124.42 97.7426 117.892 96.9746V96.3986H130.66L168.004 155.151V112.719C168.004 102.735 166.66 96.9746 159.364 96.9746ZM215.968 96.9746V96.3986H231.424V96.9746C226.816 97.3586 224.32 102.447 220.288 114.063L202.048 167.055H201.28L181.216 108.687C178.336 100.431 176.608 97.3586 172.48 96.9746V96.3986H190.912V96.9746C185.536 97.3586 183.904 99.9506 186.208 106.671L203.584 157.263L218.464 113.487C222.304 102.159 223.456 97.3586 215.968 96.9746ZM275.864 151.215H276.44L274.328 166.287H227V165.711C233.528 165.711 233.912 162.063 233.912 154.959V107.727C233.912 100.623 233.528 96.9746 227 96.9746V96.3986H272.888L274.04 109.743H273.464C269.048 99.1826 266.552 97.9346 256.184 97.9346H239.288V129.135H252.728C260.984 129.135 262.424 127.023 263.768 119.919H264.344V140.559H263.768C262.424 134.031 260.984 130.671 252.728 130.671H239.288V160.143C239.288 163.215 240.248 164.751 243.128 164.751H257.72C268.088 164.751 270.68 163.503 275.864 151.215ZM293.518 167.439C287.95 167.439 280.078 165.615 275.758 162.831L275.278 149.679H275.854C279.214 161.103 286.51 166.095 294.286 166.095C302.35 166.095 310.318 160.623 310.318 150.735C310.318 141.519 303.406 137.679 294.958 133.359L290.254 130.959C283.054 127.311 276.622 122.895 276.622 113.391C276.622 103.023 284.59 95.2466 295.438 95.2466C300.718 95.2466 307.438 97.0706 312.046 99.7586V109.743H311.47C308.398 100.335 302.062 96.5906 295.246 96.5906C286.798 96.5906 280.942 102.351 280.942 110.895C280.942 119.823 287.566 123.087 293.038 125.871L297.742 128.271C306.19 132.591 314.638 137.103 314.638 148.239C314.638 159.279 306.094 167.439 293.518 167.439ZM360.351 96.3986L361.503 109.743H360.927C356.511 99.1826 354.015 97.9346 343.647 97.9346H339.615V154.959C339.615 162.063 339.999 165.711 346.527 165.711V166.287H327.327V165.711C333.855 165.711 334.239 162.063 334.239 154.959V97.9346H330.207C319.839 97.9346 317.343 99.1826 312.927 109.743H312.351L313.503 96.3986H360.351ZM389.569 149.967C386.881 149.967 385.057 148.239 385.057 145.551C385.057 137.871 403.393 123.759 403.393 107.247C403.393 98.9906 398.401 93.5186 391.105 93.5186C382.657 93.5186 377.473 98.8946 375.361 110.223H374.785V96.2066C379.009 94.4786 385.441 92.1746 391.585 92.1746C401.377 92.1746 408.769 98.3186 408.769 107.151C408.769 122.511 387.553 137.967 387.553 145.839C387.553 148.047 388.801 149.103 390.625 149.103C391.297 149.103 392.161 148.911 392.737 148.719L392.929 149.199C391.969 149.679 390.625 149.967 389.569 149.967ZM388.705 167.439C386.113 167.439 384.001 165.327 384.001 162.735C384.001 160.143 386.113 157.935 388.705 157.935C391.297 157.935 393.505 160.143 393.505 162.735C393.505 165.327 391.297 167.439 388.705 167.439Z" fill="#121212"/>
</svg>
